<svg viewBox="0 0 460 225" xmlns="http://www.w3.org/2000/svg">
<path class="feat-1" d="M290 78.2a122.07 122.07 0 0 1-.9-23.2 2.88 2.88 0 0 0-2.82-2.83 18.86 18.86 0 0 1-3.7-.45l-.45-.26A3.05 3.05 0 0 0 280 50.3l-2.77-.38c-.5-.08-1-.15-1.5-.2l-.15-.05a13.06 13.06 0 0 0-8.1.1c-5.92-.5-11 3.58-16.13 6.5a2.86 2.86 0 0 0-1 3.87 6.7 6.7 0 0 1 1.2 2.06l.27.4-.07.27a6.82 6.82 0 0 1 .2 1.34l-.56.16-.07.26-1.33.18a11.55 11.55 0 0 0-1.64.77 2.34 2.34 0 0 0-3.2 1.22c-.1.22-.2.44-.28.67v.08a20.16 20.16 0 0 0-1.36 5.86c-.16.8-.32 1.6-.46 2.4a3 3 0 0 0-.43 1.3l-.28 3a2.28 2.28 0 0 0 .24 1.27 2.6 2.6 0 0 0 .88 2.14 2.74 2.74 0 0 0-.7 2.63A15.36 15.36 0 0 0 244 90.2a3.15 3.15 0 0 0 .25.5c.2.54.37 1.08.57 1.63a2.83 2.83 0 0 0 5.45-1.5 10.08 10.08 0 0 1 1.16-8.57 3.27 3.27 0 0 0 .3-.9 2.55 2.55 0 0 0 1 0h.2a2.82 2.82 0 0 0 2.75.92l4.25-.8c3.74-.4 7.66-.12 11.33-.38a64.1 64.1 0 0 1 15.3.68A2.88 2.88 0 0 0 290 78.2zm-6.2-2.55l.24-.23v.27zM241.26 112.36c-12.37-7.43-25.7-8.1-38.67-2.23a4.52 4.52 0 0 0-2.94 4.13c-9.8 3-19.53 6.38-28.7 5-11.42-1.72-21.1-5.78-32.18 0-8.1 4.25-23.26 14.8-28.52 24.74a13 13 0 0 0-6.54 2.8c-4.35 3.23-3.13 10.38 2.85 10.55a142.67 142.67 0 0 0 15.85-.43 6 6 0 0 0 3.4-1.32c4.54.53 8.87 1.23 11.43 1.28 11.1.24 21.7.64 32.77 1.8 16.2 1.67 35.6 1.17 51.77-2.37 7.24.75 14.52 1.94 21.8 1.67 2.87-.1 5.93-2.5 5.66-5.65-1.2-14.25 5.88-31.62-8-39.96zM210 144.5a6.46 6.46 0 0 0 2.54-.14 4.9 4.9 0 0 0 .6.35c-1.07 0-2.14 0-3.2 0 .06-.08.06-.14.06-.2zm-21.65 2.82a7.32 7.32 0 0 0 1.33.38h-1.63a4.17 4.17 0 0 0 .34-.38zm3.42.42a4.3 4.3 0 0 0 2.6-1.35 5.48 5.48 0 0 0 1.83.9 4.88 4.88 0 0 0-.4.44q-1.97 0-4 0z"/>
<path class="feat-2" d="M247 150.56c-19.07-4-48-9.88-55.68-30.47a3.06 3.06 0 0 0-5.22-.8 3.13 3.13 0 0 0-2.6 3.58c1.46 8.6 3.83 17.75 8.9 24a2.7 2.7 0 0 0-1.25 2.1l-1.62.07a3.05 3.05 0 0 0-2.65 2.3c-20.92.2-49.9 2.4-58.5-19-1.27-3.15-6.16-2.13-5.53 1.14a3 3 0 0 0-3.16.5 115.9 115.9 0 0 0-16.34 16.57 3.08 3.08 0 0 0-.26 3.5 2.86 2.86 0 0 0 3.28 4l5.7-1.64c6.57.24 18.94 1.86 20.3 1.88a2.66 2.66 0 0 0 .63-.06 166.17 166.17 0 0 0 35.87-.42 3 3 0 0 0 2.18-1.4c24.7 1.3 51 4.57 75.14 1.65a3.05 3.05 0 0 0 2.6-3.8 2.6 2.6 0 0 0-1.8-3.7zm-115 1.78a3.46 3.46 0 0 0 .54-1.4 24.6 24.6 0 0 0 1.88 1.64zm79.43-6.07a3 3 0 0 0-.33-.46c1 .46 2 .9 3 1.32q-1.35-.42-2.67-.85zm-17.7-8.6a3.43 3.43 0 0 0-.27.32c-.2-.44-.4-.87-.58-1.3z"/>
<path class="feat-3" d="M196.3 33.54a2.43 2.43 0 1 1 2.44-2.43 2.44 2.44 0 0 1-2.43 2.44zm0-3a.55.55 0 0 0-.54.55c0 .6 1.1.6 1.1 0a.55.55 0 0 0-.55-.54zM249 156.78H104.2v-8a175 175 0 0 0 23-19.7 44.47 44.47 0 0 1 15.3-10.4c9.1-3.58 17.74-3.42 25.68.48a22.63 22.63 0 0 0 9.3 2.65c4.75.13 12.5-1 22.14-7.27 13.6-8.88 30.64-8.87 43.4 0a75.22 75.22 0 0 1 6 4.67v-2.47c-1.64-1.35-3.28-2.6-4.9-3.75-13.4-9.32-31.25-9.34-45.5 0-9.25 6-16.6 7.1-21 7a20.83 20.83 0 0 1-8.55-2.46c-8.33-4.08-17.72-4.27-27.2-.55a46.3 46.3 0 0 0-16 10.83 175.9 175.9 0 0 1-21.66 18.73v-66c8.23.62 16.7.84 24.58.84 15.32 0 28.53-.83 33.76-1.2a2.16 2.16 0 0 0 1.72-1.1 2.23 2.23 0 0 0 .07-2.1c-1.48-3-4.68-6.67-11.48-6.67A25.62 25.62 0 0 0 144 72a2.2 2.2 0 0 1-2.6-.9c-3.83-5.63-11.3-9-20-9a30.52 30.52 0 0 0-17.2 5V44.42a4.5 4.5 0 0 1 4.5-4.5h175.23a4.5 4.5 0 0 1 4.5 4.5v8.12a31.1 31.1 0 0 0-17.28-5.16 29.66 29.66 0 0 0-22.64 10.3 16.67 16.67 0 0 0-6.5-1c-3.43 0-11.78.55-14.9 5.67a2.23 2.23 0 0 0 1.58 3.36 87.13 87.13 0 0 0 11.8.8c1 0 1.94 0 2.84-.04a30.44 30.44 0 0 0-1.93 8.5c-.66 8.56 2.13 16.42 7.63 21.66V94c-4.23-4.8-6.3-11.52-5.76-18.8a28.5 28.5 0 0 1 2.1-8.82c2.27-.14 4.1-.35 5.45-.54a2.7 2.7 0 0 0 2-3.84 8.57 8.57 0 0 0-2.66-3.33 27.8 27.8 0 0 1 21-9.36 29.14 29.14 0 0 1 17.27 5.58v26.75h1.88v-37.2a6.38 6.38 0 0 0-6.36-6.37H108.7a6.38 6.38 0 0 0-6.38 6.37v113.3a.94.94 0 0 0 .94.93H249v-1.88zm2.12-94a.8.8 0 0 1 0 .74.8.8 0 0 1-.6.42 78.83 78.83 0 0 1-21.6-.12.34.34 0 0 1-.24-.2.33.33 0 0 1 0-.32c2.64-4.3 10.2-4.77 13.32-4.77 5.2.02 7.67 1.17 9.15 4.26zM104.2 69.45C108.42 66 114.75 64 121.4 64c8 0 14.92 3 18.4 8.15a4.05 4.05 0 0 0 4.85 1.6 24 24 0 0 1 8.2-1.5c4.67 0 8 1.9 9.78 5.62a.35.35 0 0 1 0 .34.26.26 0 0 1-.22.15c-7.9.57-34.1 2.18-58.2.36v-9.25zM299.72 22.27H92.9a6.38 6.38 0 0 0-6.38 6.37v67.6h1.88v-67.6a4.5 4.5 0 0 1 4.48-4.5h206.84a4.5 4.5 0 0 1 4.5 4.5v53h1.87v-53a6.38 6.38 0 0 0-6.38-6.37zM97.38 186.23h151.65v1.88H97.38zM97.38 172.57h151.65v1.88H97.38z"/>
<path class="feat-1" d="M91.13 162c.12-6-7.46-7-10.27-3.22-5.2-1.83-11.64 3.27-15.7 5.84A116.24 116.24 0 0 0 48 178.17c-3.48 3.25-.9 9.92 4 9.65 5.7-.3 11.38-.83 17.07-1.13 4.94-.27 9.5.43 14.3.67a6.6 6.6 0 0 0 7.3-5.83c1.08-6.2.33-13.3.46-19.54zM84 176c.25 0 .23 0 0 0z"/>
<path class="feat-2" d="M87.4 179.5a129.12 129.12 0 0 0-14.32 0c-4.23-2.48-5.46-8.1-5.82-12.57-.28-3.48-5.56-3.62-5.65-.35a2.36 2.36 0 0 0-2.44.17 42.22 42.22 0 0 0-12.1 12.77 2.9 2.9 0 0 0 0 2.87l-.4.33a2.86 2.86 0 0 0 2 4.83A6 6 0 0 0 52.6 186l.46-.18a3 3 0 0 0 .87-.16 2.8 2.8 0 0 0 .52 0c6 1.3 12.46.8 18.87.24 4.77 1.07 10.5 0 14.84-.8 3.26-.6 2.3-5.46-.76-5.6z"/>
<path class="feat-3" d="M91.82 202.73H44.36a6.38 6.38 0 0 1-6.36-6.37v-94.7a6.38 6.38 0 0 1 6.37-6.36h47.45a6.38 6.38 0 0 1 6.37 6.37v94.7a6.38 6.38 0 0 1-6.38 6.36zM44.36 97.2a4.5 4.5 0 0 0-4.48 4.48v94.7a4.5 4.5 0 0 0 4.48 4.48h47.46a4.5 4.5 0 0 0 4.48-4.5v-94.7a4.5 4.5 0 0 0-4.48-4.48H44.36zM72.87 105.08h-9.55a.94.94 0 1 1 0-1.88h9.55a.94.94 0 1 1 0 1.88zM68.1 198.25a4.35 4.35 0 1 1 4.34-4.35 4.36 4.36 0 0 1-4.35 4.35zm0-6.82a2.47 2.47 0 1 0 2.46 2.47 2.47 2.47 0 0 0-2.47-2.48zM87.77 111.1H48.4a3.66 3.66 0 0 0-3.65 3.66v68.53a3.66 3.66 0 0 0 3.66 3.65h39.37a3.66 3.66 0 0 0 3.66-3.66v-68.55a3.66 3.66 0 0 0-3.66-3.65zM48.4 113h39.37a1.77 1.77 0 0 1 1.77 1.77V121a22.6 22.6 0 0 0-6.13 3.38 3.53 3.53 0 0 1-3.56.85 15.5 15.5 0 0 0-4.7-.9c-4.15 0-7.4 2.35-9.2 6.6a2.37 2.37 0 0 0 .14 2.1 2.34 2.34 0 0 0 1.73 1.18 71.3 71.3 0 0 0 10.16.62c3.22 0 7.7-.14 11.58-.52v20.73a44.06 44.06 0 0 1-11.05 3.88c-17.36 3.18-28.12 15.66-31.86 22v-66.15A1.77 1.77 0 0 1 48.4 113zm41.14 19.44a102 102 0 0 1-21.7-.07.25.25 0 0 1-.23-.23.52.52 0 0 1 0-.45c1-2.5 3.24-5.44 7.54-5.44a14.3 14.3 0 0 1 4.17.8 5.2 5.2 0 0 0 5.32-1.25 16.08 16.08 0 0 1 4.92-2.8v9.45zm-1.77 52.63H48.4a1.77 1.77 0 0 1-1.52-.9c2.66-4.6 12.75-19.87 31.86-23.37a37.3 37.3 0 0 0 10.8-3.62v26.12a1.77 1.77 0 0 1-1.77 1.75zM415.64 202.73H254.5a6.38 6.38 0 0 1-6.36-6.37V87.06a6.38 6.38 0 0 1 6.37-6.36h161.14a6.38 6.38 0 0 1 6.36 6.37v109.3a6.38 6.38 0 0 1-6.36 6.36zM254.5 82.58a4.5 4.5 0 0 0-4.5 4.5v109.3a4.5 4.5 0 0 0 4.48 4.48h161.16a4.5 4.5 0 0 0 4.5-4.5V87.07a4.5 4.5 0 0 0-4.5-4.48H254.5zM370.14 116.55a136.62 136.62 0 0 1-20.2-1.37.94.94 0 0 1-.58-.33l-.63-.78a.93.93 0 0 1-.2-.66c.44-6.84 7.78-12.2 16.7-12.2a15.13 15.13 0 0 1 11.3 4.38 3.74 3.74 0 0 0 3.65.82 15.9 15.9 0 0 1 4.76-.9c4 0 7.26 2.22 9.1 6.24a2.57 2.57 0 0 1-.1 2.32 2.53 2.53 0 0 1-1.94 1.27 202.1 202.1 0 0 1-21.86 1.22zm-19.55-3.17c16.88 2.5 35.77.7 41.18.1a.65.65 0 0 0 .5-.34.67.67 0 0 0 0-.6c-1.06-2.35-3.2-5.14-7.37-5.14a14.26 14.26 0 0 0-4.15.8 5.6 5.6 0 0 1-5.5-1.2 13.28 13.28 0 0 0-10-3.92c-7.77 0-14.18 4.4-14.8 10.1zM257 146.07a4.35 4.35 0 1 1 4.35-4.35 4.36 4.36 0 0 1-4.35 4.35zm0-6.82a2.47 2.47 0 1 0 2.47 2.47 2.47 2.47 0 0 0-2.47-2.48z"/>
<path class="feat-1" d="M397.78 162.45c-4.24-4.3-13-6.6-24.27-8.6-30.57-5.44-77.43 13.65-99.27-16.64-3.1-4.3-10.58-3.15-10.54 2.86.1 15.7.2 31.42.6 47.14.06 2.9 2.52 5.85 5.64 5.65 22.6-1.4 43.95.33 66.35 1.33 8.9.4 17.8-1.5 26.78-1.42 12 .1 24 1.06 35.93 1.58 3.3.15 5.35-2.73 5.66-5.65.77-7.2 1.2-14.15 1.33-21.37.07-4.8-4.84-6.44-8.22-4.88zm-64.12 2.88h-.2.27zm30.05-1.52a5.43 5.43 0 0 0-1.46 1.12l-.27.3a6.06 6.06 0 0 0-3.8-1.47c-.14-.13-.3-.25-.47-.37q3 .13 6 .43zM289 90.8c-4.5-.5-15.1-2.36-20.3.8-1.4-1.93-5.2-1.42-5.1 1.58l.23 7.3c.07 2.3 2.3 3.3 4.25 2.43 6.93-3.06 14.57-4 21.68-6.54a2.84 2.84 0 0 0-.76-5.55z"/>
<path class="feat-2" d="M404.4 180.66c.48-3.57.84-7.13 1-10.8a2.4 2.4 0 0 0-1.33-2.4c-.24-2.62-3.84-3.07-5.25-1-.45.65-.9 1.28-1.4 1.9C385.73 179 367 182 350.46 182.62c-1.33-.14-2.68-.25-4.06-.33a2.72 2.72 0 0 0-1.34.23c-10-1.66-19.8-2.84-30.24-1.7-2 .2-7.18 1.3-13.3 2.4a2.73 2.73 0 0 0-2.3-1.23 58.5 58.5 0 0 1-31.22-6.13 2.82 2.82 0 0 0-2.92 4.82c-2 9-.8 11.5 5.75 11.78 9.1 1.53 19.94 2.45 27.23-2.74h2.54a107.32 107.32 0 0 0 22.3.8 2.5 2.5 0 0 0 1.38.36l5.9-.13a2.64 2.64 0 0 0 1.63.45l3.7-.1c8-.22 16.3-.17 24.36-.77h1.12a3.37 3.37 0 0 0 1.52.56 217 217 0 0 0 28.13 1.6 2.63 2.63 0 0 0 1.4-.4 9.94 9.94 0 0 0 3.53.06 3 3 0 0 0 1-.33 2.73 2.73 0 0 0 3.2.24 2.58 2.58 0 0 0 3.57-1.07c1.14-2.13 1.5-3 1.28-4.54l.74-2.83a3.17 3.17 0 0 0-.95-2.97z"/>
<path class="feat-3" d="M402.55 90.4h-135a3.66 3.66 0 0 0-3.66 3.67v95.3a3.66 3.66 0 0 0 3.65 3.66h135a3.66 3.66 0 0 0 3.66-3.66v-95.3a3.66 3.66 0 0 0-3.65-3.66zm-136.73 3.66a1.77 1.77 0 0 1 1.77-1.77h22.83c-4.8 4.26-11.43 7.12-19.4 8.45a33.2 33.2 0 0 1-5.2.58v-7.27zm.34 9.2a31.68 31.68 0 0 0 5.16-.62c9.26-1.55 16.82-5.07 22-10.34h109.23a1.77 1.77 0 0 1 1.77 1.77v70.55c-37.7-22.5-69.6-11.66-69.92-11.54s-18.6 6.15-36-1.62c-10-4.46-22.73-13.8-32.62-21.1v-27.12h.34zm136.4 87.88h-135a1.77 1.77 0 0 1-1.78-1.77v-56.65c9.87 7.23 22.2 16.1 31.9 20.46 18 8.07 36.52 1.95 37.32 1.68.32-.1 31.58-10.87 69.28 11.95v22.57a1.77 1.77 0 0 1-1.73 1.76z"/>
</svg>
