<svg viewBox="0 0 460 225" xmlns="http://www.w3.org/2000/svg">
<path class="feat-1" d="M426.6 204.4c-3.18-12.34-9.85-23.4-24.1-23.14a25.76 25.76 0 0 0-9.53 2.16 55 55 0 0 0-6.88.1c-9 .65-17.08 5.37-26.13 6-11.28.73-22.38-3.9-32.7-7.72a5.68 5.68 0 0 0-6.32 1.84c-4.43-2.83-11.8 2.8-9 9.14 6.06 13.72 18.48 18.9 32.8 20.62 24.5 2.95 49.9 2.14 74.38-.4a8.24 8.24 0 0 0 2.9-.84c3.05-.9 5.6-3.76 4.56-7.75zm-43.4-1.35l1.2.24-2.1.1z"/>
<path class="feat-2" d="M383.7 179.32c-17.23 11.27-35.88 7.17-54.6 2.23-6.85-1.8-11.7 8.47-5 11.8 18.58 9.17 38.65 11.08 58.5 5.1a6.1 6.1 0 0 0 4.53-6.13c1-.58 2-1.2 3.05-1.85 6.96-4.53.5-15.72-6.5-11.15z"/>
<path class="feat-1" d="M320.06 163.68l-6.8-5.56.05-43.12a2.92 2.92 0 0 0-.47-1.62 3.2 3.2 0 0 0 .78-2.16l.93-52.14a3 3 0 0 0-.76-2.18s0-.07 0-.1c0-.3-.1-.58-.13-.87v-.1a72.74 72.74 0 0 0-8.1-25 3.2 3.2 0 0 0-3.7-1.45l-.43-.67a2.8 2.8 0 0 0-.74-1.2l-.66-1.03c-1.4-2.25-4.84-1.7-5.84.25a28.73 28.73 0 0 0-9.3-12.66c-14.08-10.77-44.7-7.88-61-6-21.1 2.44-31.32 16.94-35.46 37a6.62 6.62 0 0 0 .34 3.8c-5.18 10.3-2.07 26-1.9 36.34.23 14.16.64 28.33 1.07 42.5a5.66 5.66 0 0 0-1.6 4.12c0 .52-.86 26.83-2.34 25.37-3.83-3.78-11.3-1.17-11 4.56.55 11.23 16.33 16.1 25.9 14.66a21.4 21.4 0 0 0 11.7-5.8 5.87 5.87 0 0 0 4.4-3.08 87.08 87.08 0 0 0 10.63-29.8 6.76 6.76 0 0 0-4.48-7.66 188.7 188.7 0 0 0 0-19.7 194.1 194.1 0 0 1 10.25-47.77c.76-2.05 1.55-4.1 2.33-6.17a6.85 6.85 0 0 0 2.25.4c17.68-.1 44.3 5.1 56.5-12.14a17.53 17.53 0 0 0 3-11.9l.12.32a30.1 30.1 0 0 0 2.7 7.95 3.65 3.65 0 0 0 2.75 2.1c0 12 4.08 23 4.7 35.1a2.85 2.85 0 0 0-1 2.47c.1 2.87.24 5.72.4 8.57.2 13.27-1.63 26.5-3.08 39.7-2 4.16-3.78 8.3-5.4 12.58l-13 10.47c-.48.3-1 .56-1.43.85a3 3 0 0 0-1.47 2.52 2.75 2.75 0 0 0-.92 2.3c.42 7 2.38 10.1 7.82 13.3 4.1 3.56 9.27 5.52 14.56 4.35 6 1.27 12.7-.6 19.26-6.3 1.9-1.6.87-4.82-1.38-5.4zM197.9 73.28v.26c0-.1 0-.2 0-.28h.04zm48.9-40.53l-1.28-.23 2.4-.12zm57.66 112.47a3.67 3.67 0 0 0-.52 0c.14-.25.28-.5.4-.76.04.24.08.54.1.76zm-11.9 11.66l-.13.07-1.06-.33a3 3 0 0 0-.27-.52l.8-.36q.3.56.64 1.14z"/>
<path class="feat-2" d="M309.54 33.46a2.62 2.62 0 0 0-2.76-2.32c-2.62-4-7.92-7.22-12-8.5a2.8 2.8 0 0 0-3.38 1.2 7.1 7.1 0 0 0-.6-1c-9.55-13.14-23.44-16.08-39.16-15-16 1-41.87 3.7-54.6 14.25-13.04 10.8-7.5 34.42-7.55 49.4l-.1 40.8c0 6.3 3.43 47.32-6.92 45.65-8.13-1.3-11.63 11.13-3.43 12.46 31.85 5.15 23.23-44.06 23.27-62.18q0-16.32.08-32.63c0-10-3.7-27.52.1-36.72 8-19.56 65.36-25.75 77.16-9.53 3.53 4.85 10.42 2.75 12-1.35a3.15 3.15 0 0 0 1.08.73 6.7 6.7 0 0 0 .86 5.85l.1.14c1.2 4.42 3.45 9.37 7.53 10 6.3 1.08 9.2-6.3 8.3-11.26z"/>
<path class="feat-1" d="M179.27 204.07a6.34 6.34 0 0 0-.9-5.45c-4.4-12.9-7.76-16.37-21.9-19.22-8.82-1.78-17.5-3.84-25.1-.74-3-3.4-7.17-4.42-13.14-2.45-1.6.54-2.4 2.75-3.8 3.53a41.22 41.22 0 0 1-6.65 2.77c-9.3-4.32-20.68-13-31.46-10.17-3.38.9-3.16 4.65-5.76 5.8A33.9 33.9 0 0 1 66 179.8c-7.4-.6-15.53.6-21.3 1.16a6.73 6.73 0 0 0-6.2 7.4 12.45 12.45 0 0 0-3.12 4 6.66 6.66 0 0 0 1 7.84l.34.3A12.62 12.62 0 0 0 35 202.2c-1.7 2.07-2.77 5.37-1 7.83 9.53 13.3 37.82 6.34 52 6.32l90.14-.14c7.06-.02 8.12-9.4 3.13-12.16z"/>
<path class="feat-2" d="M102.7 183.63a13.7 13.7 0 0 0-2.22-.37c-1.27-1.12-2.65-2.12-4-3.14-5.08-3.73-10.28-7.3-15.54-10.8-6.47-4.3-12.53 5.1-7.75 10.12a6.38 6.38 0 0 0 1.7 3.76c5.38 5.9 13.65 9.42 17.37 16.7 2 3.9 7.07 3.88 10 1.43 2.53.37 4.77-.7 6.54-3 4.13-5.5.1-13.15-6.1-14.7zM135.86 176.38a7.06 7.06 0 0 0-6-.3c-3.14-2.92-9.34-2.74-10.9 2.67a17.05 17.05 0 0 1-3.2 6.36c-3.66 4.37-1.2 9.62 3.14 10.65a7.35 7.35 0 0 0 .76 2 7.43 7.43 0 0 0 9.48 2.78c3.07-1.48 4.14-4.3 5.46-7.24l3.6-8c1.4-3.3.9-7.03-2.34-8.92z"/>
<path class="feat-3" d="M402.64 128.88a22.46 22.46 0 0 1-5.2 3.83 29.52 29.52 0 0 1-6.1 2.6 29 29 0 0 1-7.67 1.22 24.22 24.22 0 0 1-7.83-1.1 14.22 14.22 0 0 1-3.4-1.38 12.37 12.37 0 0 1-2.77-1.68 15.86 15.86 0 0 1-3.52-3.23c-.75-.87-1.13-1.38-1.13-1.38a1.17 1.17 0 0 1 1.34-1.8l.17.07s.58.22 1.53.63l1.65.77 2.18.8a16.7 16.7 0 0 0 2.54.77 18.6 18.6 0 0 0 2.85.6 21.53 21.53 0 0 0 3.07.38 24.06 24.06 0 0 0 3.2.1c1.1 0 2.2-.1 3.26-.17s2.16-.17 3.2-.4c2.07-.3 4-.76 5.73-1.12l5.7-1.46a1.2 1.2 0 0 1 1.46.86 1.2 1.2 0 0 1-.26 1.1z"/>
<ellipse class="feat-3" cx="360.28" cy="86.6" rx="3.91" ry="3.58"/>
<ellipse class="feat-3" cx="414.55" cy="86.6" rx="3.98" ry="3.32"/>
<path class="feat-3" d="M282.1 128.88a22.46 22.46 0 0 1-5.2 3.83 29.52 29.52 0 0 1-6.12 2.6 29 29 0 0 1-7.66 1.22 24.22 24.22 0 0 1-7.83-1.1 14.22 14.22 0 0 1-3.4-1.38 12.37 12.37 0 0 1-2.78-1.68 15.86 15.86 0 0 1-3.52-3.23c-.75-.87-1.13-1.38-1.13-1.38a1.17 1.17 0 0 1 1.34-1.8l.2.05s.58.22 1.53.63l1.65.77 2.17.8a16.7 16.7 0 0 0 2.54.77 18.6 18.6 0 0 0 2.84.62 21.53 21.53 0 0 0 3.07.36 24.06 24.06 0 0 0 3.22.1c1.08 0 2.18-.1 3.25-.17s2.16-.2 3.2-.42c2.07-.3 4-.76 5.73-1.12l5.7-1.46a1.2 1.2 0 0 1 1.46.86 1.2 1.2 0 0 1-.27 1.12z"/>
<ellipse class="feat-3" cx="239.73" cy="86.6" rx="3.91" ry="3.58"/>
<ellipse class="feat-3" cx="294" cy="86.6" rx="3.98" ry="3.32"/>
<path class="feat-3" d="M154.5 128.35a23.67 23.67 0 0 1-5.43 3.84 31.33 31.33 0 0 1-6.33 2.56 30.92 30.92 0 0 1-7.88 1.23 25.86 25.86 0 0 1-8-1.1 14.8 14.8 0 0 1-3.5-1.36 13.24 13.24 0 0 1-2.9-1.67 16.55 16.55 0 0 1-3.7-3.25c-.78-.88-1.18-1.4-1.18-1.4a1.17 1.17 0 0 1 1.32-1.8l.16.05s.6.22 1.58.64l1.7.8 2.27.78a18.37 18.37 0 0 0 2.66.78 19.46 19.46 0 0 0 3 .62 23.82 23.82 0 0 0 3.2.37 26.4 26.4 0 0 0 3.35.1c1.14 0 2.28-.1 3.4-.17s2.24-.18 3.3-.4c2.18-.3 4.2-.77 6-1.14l5.93-1.46a1.2 1.2 0 0 1 1.06 1.97z"/>
<ellipse class="feat-3" cx="121.64" cy="83.23" rx="4.06" ry="3.58"/>
<ellipse class="feat-3" cx="169.28" cy="83.23" rx="4.06" ry="3.58"/>
<path class="feat-3" d="M425.22 196.5a20.1 20.1 0 0 0-9.08-10.9c-5-2.8-12.63-2.78-22.35-2.78h-2.48a26.45 26.45 0 0 1-9.4-1.55 8.88 8.88 0 0 1-5.24-6.64c-1.06-6-1.37-15.94 2.1-19 2-1.75 5.08-2.28 10.88-1.9.23 0 23.56 3.84 30.52-14.26 4-10.45 5.6-23.1 5.86-46.63a271.36 271.36 0 0 0-2.2-42.4c-1.14-8.14-6.83-15.2-16-19.82-3.2-1.6-10.5-3.72-18.96-4.55-10.18-1-21.6-.75-26.78.08a42.86 42.86 0 0 0-14.34 4.5C339.93 35 335 43.1 333.56 54.22a185.8 185.8 0 0 0-1.75 21.28c-.6 18.42-.6 51.2 1.27 88 0 .1.62 9.4-5.94 15.48-5.15 4.78-13.3 6.37-24.22 4.73a1 1 0 0 0-.7.15 16 16 0 0 0-2.67-.5c-2.6-.26-5.93-.3-9.8-.38-5-.1-10.63-.18-16.58-.7a44.48 44.48 0 0 1-10.45-2.76c-2.85-1.17-6.24-4.23-6.75-7.12-1.42-8-.57-14.26 2.27-16.76 1.9-1.67 4.88-2.17 11-1.9a44.43 44.43 0 0 0 10.5-.46 1 1 0 0 0-.06.14c-1.35 9.8 1 14.06 1.55 14.84 4.1 9.43 21.07 9.2 21.67 9.16q2 .18 3.76.18c6.16 0 11-1.55 14.34-4.63a14.92 14.92 0 0 0 4.78-10.25 1.08 1.08 0 0 0-.45-.88 1.1 1.1 0 0 0-1-.14c-2.57.9-4.56.78-6.08-.36-4.1-3.08-3.6-12.46-3.6-12.58l2.32-68.53c.7-22.63-1.54-34.54-1.64-35.05-4.53-21-22.85-22.87-23.6-22.94a28.18 28.18 0 0 0-15.14-11.75c-14.18-4.7-32.63-4.08-33.64-4a86.25 86.25 0 0 0-28.15 5.3 43.58 43.58 0 0 0-8.8 4.38c-19 12.4-18.48 28.57-18.46 29.2-.4 21.68-.13 104.93-.12 105.73-.1 3-.84 4.82-2.23 5.5-2.67 1.25-7.46-1.68-9.1-2.9a1.08 1.08 0 0 0-1.7.65c-1.2 6.3 0 11.32 3.48 14.9 5 5.17 13.8 6.27 20.36 6.27a57.92 57.92 0 0 0 8.54-.6 29.8 29.8 0 0 0 6-1.22 12.5 12.5 0 0 1-2.07 4.5c-2.6 3.5-7.2 5.3-13.6 5.38-.62 0-14.7.3-23.32 3.22a23.5 23.5 0 0 0-6.65-5.45c-5.12-2.8-13.1-2.77-23.15-2.76h-2.56a28.46 28.46 0 0 1-9.8-1.55 8.94 8.94 0 0 1-5.43-6.65c-1.1-6-1.43-15.92 2.18-19 2-1.68 5.08-2.2 11.4-1.9 1 .1 25.33 2.36 30.54-14.75l.45-1.5c2.55-8.33 5.66-18.5 6.45-37.9a7.65 7.65 0 0 0 4.15-6.76v-9.7a7.3 7.3 0 0 0-4-6.54A245.1 245.1 0 0 0 175 46.15C173.85 38 168 31 158.42 26.32c-3.3-1.6-10.87-3.72-19.63-4.54-10.56-1-22.4-.74-27.77.08a45.6 45.6 0 0 0-14.86 4.5C88.07 30.63 83 38.8 81.44 49.9a180 180 0 0 0-1.8 21.28c-.78 22.08-1.6 55.27.15 88.5 0 .07 1.05 8.3-3.25 13.85a13.53 13.53 0 0 1-9.5 5l-17.3.4a13.85 13.85 0 0 0-9.37 4.2c-5.6 5.38-8.43 14.9-8.43 28.34a1.08 1.08 0 0 0 2.15 0c0-15.9 4.2-23.3 7.7-26.73a11.82 11.82 0 0 1 7.93-3.66l17.46-.4a18.33 18.33 0 0 0 6-1.7l25.55 26.14a1.07 1.07 0 0 0 .77.32 1.08 1.08 0 0 0 .78-.37c4.2-4.82 8.26-9.63 11.88-14a122.9 122.9 0 0 1 15.47 13.08 1.08 1.08 0 0 0 .77.32h.22a1.08 1.08 0 0 0 .78-.66l9.15-23.23c1 .08 1.94.1 2.77.1h2.57c9.38 0 17.5 0 22.13 2.5a22.55 22.55 0 0 1 9.6 10.66c2.55 6.14 4 16 4.07 16.07a1.08 1.08 0 1 0 2.13-.32c-.06-.4-1.55-10.18-4.2-16.57a23.78 23.78 0 0 0-2.5-4.47c8.36-2.6 21.8-2.88 21.92-2.88a23.2 23.2 0 0 0 10.64-2.34 1.06 1.06 0 0 0 .44.76c.2.15 14.14 9.4 29.74 9.4A32.27 32.27 0 0 0 263 182.2a1 1 0 0 0 .1-.2 46.3 46.3 0 0 0 9.9 2.44c6 .53 11.7.63 16.73.7 3.8.08 7.1.13 9.62.37 8.08.78 13.76 8.46 15.1 11.85a39.35 39.35 0 0 1 2.47 12.65 1 1 0 0 0 1.08 1 1 1 0 0 0 1.07-1 40.86 40.86 0 0 0-2.63-13.4 25.07 25.07 0 0 0-8.74-10.16 39.54 39.54 0 0 0 9.5-.45 1 1 0 0 0 .06.1c.72.7 17.93 17 39.92 17h.82c4 0 23.5-.94 36.1-18.14 8.95 0 16.62 0 21 2.5a18.07 18.07 0 0 1 8.15 9.8 46.54 46.54 0 0 1 2.68 13.57 1.08 1.08 0 0 0 1.08 1 1.08 1.08 0 0 0 1-1.1 48 48 0 0 0-2.78-14.24zM179.14 78.82v9.7a5.3 5.3 0 0 1-5.1 5.38l-20.72-.24a5.13 5.13 0 0 1-5.12-5.12v-9.7c0-2.77 2.15-5.86 5-5.86l20.8.7a5.12 5.12 0 0 1 5.14 5.15zm-97.36-7.55a178.23 178.23 0 0 1 1.78-21c1.43-10.44 6.14-18 13.6-22a43 43 0 0 1 14.2-4.28c5.22-.8 16.84-1 27.23-.06 8.5.8 15.74 2.8 18.88 4.34 6.86 3.33 11.68 8 14 13.32a1.1 1.1 0 0 0-.35.07c-.27.1-27.83 11.34-77.2 2.62a1.08 1.08 0 0 0-1.27 1.05v38.88H82a1.05 1.05 0 0 0-.64.23c.14-4.72.28-9.14.42-13.18zm17.66 131.5l-24.37-24.9a14.22 14.22 0 0 0 3.18-3 15.76 15.76 0 0 0 1.52-2.4 190.92 190.92 0 0 1 30.65 17.35c-3.36 4.05-7.1 8.48-10.98 12.94zm12.36-14.6a193.37 193.37 0 0 0-31.16-17.67 25.13 25.13 0 0 0 1.3-11c-1.4-26.27-1.16-52.6-.62-73.36a1.06 1.06 0 0 0 .7.26h11.72a1.08 1.08 0 0 0 1.08-1.08V46.6c49.2 8.42 76.88-2.86 77.16-3a1 1 0 0 0 .23-.16 18.82 18.82 0 0 1 .7 3 241.36 241.36 0 0 1 2.18 25.16 7.07 7.07 0 0 0-1-.08l-20.86-.72c-4.23 0-7.18 4.22-7.18 8v1.4a1 1 0 0 0 0 .1v.2a9 9 0 0 0-5.4-2.3 11.56 11.56 0 0 0-7 2.24v-1.6a7.7 7.7 0 0 0-7.37-7.66l-20.6.38a7.3 7.3 0 0 0-7.27 7.28v9.7c0 3.8 2.9 8 7.1 8l20.9-.73a7.28 7.28 0 0 0 7.26-7.27v-5.35c.9-.8 3.63-3 6.84-2.8a7.76 7.76 0 0 1 5.5 3.24v27.1h-15.7a1.08 1.08 0 1 0 0 2.16h16.76a1.08 1.08 0 0 0 1.08-1.07V93.68a7.23 7.23 0 0 0 5.15 2.15l20.7.25a6.68 6.68 0 0 0 1-.07c-.8 18.54-3.72 28.07-6.32 36.56l-.46 1.52c-4.7 15.4-28 13.25-28.3 13.23-6.1-.27-10.16 0-13 2.42-4.63 3.92-4 15-2.9 21a11.1 11.1 0 0 0 .47 1.7c-1.37 1.73-6.22 7.9-12.7 15.75zm19.7-109.35v9.7a5.13 5.13 0 0 1-5.1 5.12l-20.88.73c-2.9 0-4.92-3.1-4.92-5.85v-9.7a5.13 5.13 0 0 1 5.14-5.12l20.6-.37a5.5 5.5 0 0 1 5.17 5.5zM128 201.5a127.2 127.2 0 0 0-14.46-12.08c5.65-6.85 10-12.4 11.95-14.82a11 11 0 0 0 5.24 4.36 23.8 23.8 0 0 0 5.6 1.4zM313.17 45.6c0 .13 2.3 12.2 1.6 34.57l-2.33 68.5c0 .43-.57 10.62 4.46 14.4a7.58 7.58 0 0 0 6.5 1.14 12.9 12.9 0 0 1-3.95 7.22c-3.57 3.24-9.1 4.55-16.54 3.87-.1 0-16.34.24-19.9-8.2 0 0-2.58-3.67-1.24-13.38a1.07 1.07 0 0 0-.2-.8c6.86-1.47 14.52-5.13 17.1-13.93l.46-1.52c2.73-9.23 6.13-20.72 6.38-44.6a203.92 203.92 0 0 0-2-37.22c-.77-5.56-3.4-13.46-8-19a18.23 18.23 0 0 0 0-2.86 25.17 25.17 0 0 0-2.5-9.2c4.3.8 16.6 4.5 20.17 21zM206.42 172.7c-.2 0-19.25 3-27.08-5-2.68-2.75-3.74-6.56-3.16-11.34 2.27 1.44 6.62 3.66 9.86 2.13 2.18-1 3.34-3.53 3.46-7.4 0-.85-.26-84.07.13-105.8 0-.16-.42-15.67 17.47-27.37a41.6 41.6 0 0 1 8.38-4.16 84 84 0 0 1 27.44-5.16c.2 0 19-.66 32.9 3.95 10 3.33 16.74 11.53 17.47 21.4a20.4 20.4 0 0 1-3.34 12 18.2 18.2 0 0 1-9.4 6.73c-4.75 1.56-18.6 5.1-44.25 4.16a6.15 6.15 0 0 0-5.42 2.8c-1.32 2.12-3 6.2-3.43 13.57 0 .5-1.7 50.64-1.52 75.68.12.85 1.9 21.62-19.5 23.82zm2.93 9.6a13.4 13.4 0 0 0 3-2.9 15.3 15.3 0 0 0 2.74-6.7c14.54-6.4 13-23.85 13-24-.2-24.9 1.5-75 1.5-75.45.43-6.9 1.94-10.63 3.12-12.54a3.85 3.85 0 0 1 3.55-1.7c26 .92 40.14-2.67 45-4.27a20.13 20.13 0 0 0 10.53-7.62 24 24 0 0 0 3.2-7.48A40.44 40.44 0 0 1 301.32 56q.5 3.7.87 7.1c-3-.4-14.66-1.5-21.68 4.42-3.53 3-5.32 7.24-5.32 12.7v33.6h-15.06a1.08 1.08 0 1 0 0 2.15h16.15a1.08 1.08 0 0 0 1.07-1.08V80.16c0-4.78 1.53-8.5 4.55-11 6.8-5.73 19.1-4.06 20.5-3.85a188.47 188.47 0 0 1 .92 27.52c-.25 23.64-3.46 34.5-6.3 44.08l-.44 1.5c-4.52 15.4-27 13.26-27.25 13.23-5.88-.28-9.82 0-12.54 2.42-4.9 4.33-3.7 14.56-3 18.75.6 3.35 4 6.7 7.2 8.34-20.1 22.04-51.3 1.38-51.65 1.13zM335.68 54.53c1.38-10.44 5.9-18 13.1-22a40.2 40.2 0 0 1 13.65-4.25c5-.8 16.23-1 26.23-.07 8.18.8 15.16 2.8 18.2 4.33 6.6 3.33 11.24 8 13.5 13.33a1.1 1.1 0 0 0-.36.1c-.26.12-26.88 11.32-74.38 2.6a1.1 1.1 0 0 0-.88.24 1.07 1.07 0 0 0-.4.83v38.87h-10.2a1.05 1.05 0 0 0-.47.12c.06-4.9.17-9.3.3-13.07a183.22 183.22 0 0 1 1.7-21.06zm-7.1 126c7.33-6.8 6.67-16.8 6.64-17.2-1.44-28.2-1.77-54.04-1.57-72.83a1.05 1.05 0 0 0 .5.15h11.3a1.08 1.08 0 0 0 1.07-1.08V50.9c47.4 8.4 74.1-2.86 74.35-3a1 1 0 0 0 .17-.1 19.46 19.46 0 0 1 .65 3c.56 4.12 1 8.2 1.32 12.1-3.76-.4-15-1.1-21.83 4.73-3.62 3.06-5.45 7.43-5.45 13V115H380.7a1.08 1.08 0 0 0 0 2.15h16.14a1.08 1.08 0 0 0 1.08-1.08v-35.5c0-4.9 1.57-8.7 4.67-11.33 6.42-5.45 17.65-4.52 20.6-4.17a271 271 0 0 1 .68 27.73c-.3 26.6-2.4 37.3-5.7 45.9-6.34 16.46-27.94 13-28.26 12.9-6.57-.42-10.08.25-12.55 2.43-5.48 4.82-3.1 19.35-2.8 21a10.9 10.9 0 0 0 6.53 8.25l.54.2c-27.75 20.08-50.48-.23-53.15-2.8zM358 201h-.73c-18.3 0-33.6-12.16-37.5-15.56a21.88 21.88 0 0 0 7.07-3.34 47.43 47.43 0 0 0 16.92 10.05 40.75 40.75 0 0 0 13.1 2.2c8 0 17.42-2.46 27.38-10.08a32.64 32.64 0 0 0 7.13.75C379.35 200.12 361.63 201 358 201z"/>
</svg>
