<svg viewBox="0 0 460 225" xmlns="http://www.w3.org/2000/svg">
<path class="feat-1" d="M280.62 52.53A3.27 3.27 0 0 0 284 53.9q-.6-5.92-1.4-11.84l-.34-2.47a3.37 3.37 0 0 0-3-.1 9.46 9.46 0 0 0-2.56.12c-2.9.53-6.36 1-9.08 2.25-2.3 1-4.9 3.24-5.7 5.83l-.24-.06c-3.8-.82-5.4 5-1.6 5.82 5.12 1.1 10.57 2.25 15.8 1.08a8.4 8.4 0 0 0 4.43-2.45c.15.15.22.3.32.43zm-5.25-6.3a18.73 18.73 0 0 1 2.57-.2c0 .16.06.3.1.46a9.4 9.4 0 0 0-2.67-.26z"/>
<path class="feat-2" d="M282.5 42.18c0-3.53-5-3.85-5.87-.95-.16-.15-.32-.3-.5-.46-2.9-2.54-7.2 1.72-4.26 4.27a14.7 14.7 0 0 1 4.73 7.45c.9 3.27 5.93 2.6 5.93-.8q0-4.77-.02-9.52z"/>
<path class="feat-1" d="M416.12 185.58c-21.12.94-42.25 1.22-63.4 1-9.9-.1-24.12-3.78-33 1.8.4-3.25-4.83-4.47-6-1l-3.72 7.78c-1.4 2 .5 4.38 2.6 4.54 24.94 1.92 50.32.6 75.3.62 16.8 0 24.8 4.48 31.18-10.9.7-1.8-1.18-3.92-2.96-3.84z"/>
<path class="feat-2" d="M311.43 201.2c32.6-.47 70.54 4.08 102.4-3.4 3.77-.9 2.17-6.72-1.6-5.83-31.35 7.38-68.65 2.73-100.8 3.18-3.87.05-3.88 6.1 0 6z"/>
<path class="feat-1" d="M372.5 152.5c-23.1-1.26-46.63 2.3-69.76.67-1.16-.08-1.16 1.73 0 1.8 23.13 1.63 46.65-1.9 69.77-.67 1.17.06 1.17-1.75 0-1.8zM300.62 138.78c24.67.84 49.18-2 74-.7 1.16.07 1.16-1.74 0-1.8-24.83-1.33-49.35 1.53-74 .7a.9.9 0 0 0 0 1.8zM306.86 192.8c-.07-1.75-1.9-3.7-3.82-2.9-4 1.63-10-1.65-14.65-3.12a2.62 2.62 0 0 0-1.1-.53 61.7 61.7 0 0 0-16.06-2 3.5 3.5 0 0 0-1.28.27c-3.08-.2-6.15-.4-9.24-.5s-3.7 3.65-1.9 5.3c-.1 5-.26 10-.33 15 0 2-.5 4.53.9 6.26 3.65 4.5 15.9 1.07 20.8.87 6.14-.25 18.75 3.1 24.1-.6 4.7-3.24 2.76-13.14 2.56-18.05z"/>
<path class="feat-2" d="M307 207a13.5 13.5 0 0 1-1.08-2c.93-3.92.44-8.9.67-13.42.17-3.55-4.86-3.84-5.86-.9a3.16 3.16 0 0 0-4.28 2.72c0 .56-.1 1.1-.16 1.66a10.92 10.92 0 0 1-.83 2.64 14.88 14.88 0 0 1-.84 1.5 3.1 3.1 0 0 0-.6.4 25.53 25.53 0 0 1-6.6 4.1c-9.28-3.56-17.4-4.83-27.88.16-2.8 1.34-1.4 4.94 1.07 5.46a3 3 0 0 0 2.9 3.08c3.45.15 6.86.2 10.2.05l12.28.07c2.63 0 6.48.92 8.4-1.45a3.48 3.48 0 0 0 .3-.43 2.45 2.45 0 0 0 2.6 1.38c.38 0 .74-.07 1.1-.13a51.53 51.53 0 0 1 6.05-.33A3 3 0 0 0 307 207z"/>
<path class="feat-1" d="M170.3 17.4c31.4 38.57 13.46 96.78 2.25 140.48-1 3.76 4.85 5.37 5.82 1.6 11.9-46.4 29.55-105.4-3.8-146.35-2.46-3-6.7 1.28-4.28 4.27zM199.22 195.67c.07-2.75.64-5.4-2.3-6.8-3.3-1.55-9.34 1.5-12.5 2.14a104.4 104.4 0 0 1-14.64 2c-.84.05-7.83.63-10.34.68a2.87 2.87 0 0 0-.18-.25 3.48 3.48 0 0 0-3.27-1.3c-.8-3-5.9-2.72-5.93.85 0 3.88-1.76 13.1.87 16.35 2.34 2.9 7.15 1.8 10.37 1.82l23.45.1c3.63 0 10.28 1.66 13.15-1.38 2.5-2.7 1.24-10.87 1.32-14.2z"/>
<path class="feat-2" d="M199.46 190.25c.1-3.08-3.66-3.7-5.3-1.9-1.55-1-4.17-.57-4.76 1.6-2.68 9.9-11.34 9.6-19.77 11.25-6.1 1.2-12.84 1.6-18.34 4.57-2.8 1.5-1.3 5.43 1.5 5.62a193 193 0 0 0 30.12-.13 65.24 65.24 0 0 0 7.6-.55 4.8 4.8 0 0 0 2.75.8c8.66.12 6.04-16.84 6.2-21.27z"/>
<path class="feat-1" d="M90.67 195a2.63 2.63 0 0 0-.68-1.93 4 4 0 0 0 .07-1.6c-.9-6.4-9.87-7.46-15.2-7-3.14.28-5.64 1.44-8.5 2.54-6.92 2.68-14.2 3.14-21.55 3.7a3.2 3.2 0 0 0-1.92 5.48 12.46 12.46 0 0 0-1.28.65 3.14 3.14 0 0 0-1.4 3.4l.2 1.23a2.8 2.8 0 0 0 1.2 1.7 12 12 0 0 0 0 4c.95 5.94 10 5.28 14.72 5.47 5.62.23 11.18-.6 16.77-1 4.22-.33 10 .82 14-.73 5.8-2.25 3.3-10.83 3.57-15.9zm-43.2 12.06l.2.16a.16.16 0 0 1-.2-.16zm34.1-1.14a14 14 0 0 0 1.93-.48 5.83 5.83 0 0 1-1.92.47z"/>
<path class="feat-2" d="M87.92 187.52a3.6 3.6 0 0 0-3.44.53c-4.92 4.14-6.68 9.57-13.45 11.68-7 2.2-15.14 2.44-22.46 2.65a2.9 2.9 0 0 0-2.9 2.8c-3.48.7-3.63 5.84.27 6 14.1.45 28.22.1 42.3.7a3 3 0 0 0 2.9-3.88c-1.57-5.2.8-13 1.43-18.25.34-2.75-2.76-3.5-4.65-2.23zM84.72 202a27.6 27.6 0 0 0-.05 3.72l-1.54-.05a22.73 22.73 0 0 0 1.6-3.67z"/>
<path class="feat-3" d="M87.74 175.87h-9.32a3.57 3.57 0 1 1 0-7.14h1.48a1 1 0 0 0 1-1v-7.62a1 1 0 0 0-1-1H54.42a1 1 0 0 0-1 1v7.63a1 1 0 0 0 1 1h1.5a3.57 3.57 0 1 1 0 7.14h-10a3.9 3.9 0 0 0-3.9 3.9v29.08a3.9 3.9 0 0 0 3.9 3.9h41.82a3.9 3.9 0 0 0 3.9-3.9v-29.08a3.9 3.9 0 0 0-3.9-3.9zm-41.82 2h10a5.58 5.58 0 1 0 0-11.16h-.5v-5.6H78.9v5.6h-.48a5.58 5.58 0 1 0 0 11.17h9.32a1.9 1.9 0 0 1 1.9 1.9v7.15a51.23 51.23 0 0 0-17.3.74A191.37 191.37 0 0 1 44 191.4v-11.63a1.9 1.9 0 0 1 1.92-1.9zm41.82 32.86H45.92a1.9 1.9 0 0 1-1.92-1.88V193.4a193.7 193.7 0 0 0 28.7-3.76 48.82 48.82 0 0 1 16.9-.67v19.88a1.9 1.9 0 0 1-1.86 1.9zM207.54 77.56c-1.1-46.28-28.66-62.3-34.17-65a2.42 2.42 0 0 0-3.48 2.5l2 14.6a1 1 0 0 0 1.08.86 14.73 14.73 0 0 1 5.2.56 10.37 10.37 0 0 1-4.75 2 1 1 0 0 0-.92 1.14l1.1 8a348.7 348.7 0 0 1 1.3 83.18l-.25 2.45c-1.16 11-2.27 21.63-2.9 31.28h-9.37a1 1 0 0 0-1 1v7.62a1 1 0 0 0 1 1h1.5a3.57 3.57 0 1 1 0 7.14h-10a3.9 3.9 0 0 0-3.9 3.9v29.07a3.9 3.9 0 0 0 3.9 3.9h41.8a3.9 3.9 0 0 0 3.9-3.9v-29.1a3.9 3.9 0 0 0-3.9-3.9h-9.3a3.57 3.57 0 1 1 0-7.14h1.48a1 1 0 0 0 1-1v-7.62a1 1 0 0 0-1-1h-7.7c2.7-10.46 7.58-20.94 12.35-31.2 1.87-4 3.73-8 5.53-12.1a1.94 1.94 0 0 0 .2-1.53 1.4 1.4 0 0 0-.65-.66 11.94 11.94 0 0 1-4.9-3.9 16.77 16.77 0 0 1 6 1.74 1 1 0 0 0 .82.06 1 1 0 0 0 .6-.57c5.37-13.27 7.67-23.56 7.44-33.37zm-53.68 100.32h10a5.58 5.58 0 1 0 0-11.16h-.48v-5.6h8.23c-.22 3.87-.38 7.6-.42 11.1a44.7 44.7 0 0 0 4.2 19.24c-1.88.18-3.92.3-6.2.3-11.7 0-16.08-2.25-17.2-3v-9a1.9 1.9 0 0 1 1.88-1.88zm35.34 24.85a.42.42 0 0 1 .15.3v2.82a42.62 42.62 0 0 1-16.17-33.62c0-3.5.2-7.23.43-11.12h4a61.75 61.75 0 0 0-1.64 13.65c-.04 15.25 11.04 25.98 13.23 27.98zm6.5 8h-41.84a1.9 1.9 0 0 1-1.9-1.9v-17.72c2.3 1.13 7.26 2.67 17.2 2.67a66.1 66.1 0 0 0 7.16-.38 42.45 42.45 0 0 0 13.55 15.3 1 1 0 0 0 .48.13 1 1 0 0 0 1-1v-4.8a2.45 2.45 0 0 0-.8-1.78 42.68 42.68 0 0 1-7.35-9c1.74-.38 3.35-.8 4.9-1.2a46.38 46.38 0 0 1 9.47-1.78v19.58a1.9 1.9 0 0 1-1.9 1.9zm-8.85-49.63v5.6h-.48a5.58 5.58 0 1 0 0 11.17h9.32a1.9 1.9 0 0 1 1.88 1.9v7.48a48.45 48.45 0 0 0-10 1.85c-1.7.44-3.48.9-5.44 1.32a32.8 32.8 0 0 1-4.2-15.67 60.2 60.2 0 0 1 1.7-13.64h7.2zm11.77-51.94a17.16 17.16 0 0 0-7.88-1.5 1 1 0 0 0-.82 1.46 14.75 14.75 0 0 0 6.2 6c-1.74 4-3.6 7.95-5.44 11.9-4.9 10.5-9.88 21.26-12.62 32h-4.3c.63-9.56 1.74-20.1 2.9-31.06l.25-2.45a350.55 350.55 0 0 0-1.3-83.64l-1-7.06a15.25 15.25 0 0 0 6.13-3.3 1 1 0 0 0-.14-1.6 13.2 13.2 0 0 0-6.88-1.55l-1.86-13.68a.4.4 0 0 1 .6-.43c5.33 2.65 32 18.16 33.05 63.3.25 9.34-1.9 19.1-6.9 31.63z"/>
<path class="feat-1" d="M371.87 69.5c-19.16-1.4-38.57 1.68-57.64 1.3q.08.9.14 1.8c19 .37 38.38-2.7 57.5-1.3 1.13.08 1.13-1.73 0-1.8zM372.5 86.2c-19.37-1.37-39 .9-58.48.93q-.13.9-.28 1.8c19.55 0 39.3-2.3 58.77-.93 1.17.08 1.17-1.73 0-1.8zM372.24 102.76c-20.68-1.34-41.6.12-62.35.7q-.33.92-.66 1.84c21-.58 42.1-2.08 63-.73 1.16.08 1.16-1.73 0-1.8zM373.38 119.65c-23.3 0-47-1.18-70.27.35l-.84 1.86c23.54-1.62 47.53-.4 71.12-.4a.9.9 0 0 0 0-1.8zM278.4 17.4c31.43 38.57 13.48 96.78 2.27 140.48-1 3.76 4.85 5.37 5.82 1.6 11.9-46.4 29.5-105.4-3.82-146.34-2.45-3-6.7 1.28-4.27 4.27z"/>
<path class="feat-3" d="M418.82 184.7h-30.26V53.36a15 15 0 0 0-15-15h-67.22C297.48 21.43 285 14.27 281.5 12.52A2.42 2.42 0 0 0 278 15l2 14.6a1 1 0 0 0 1.1.86 14.76 14.76 0 0 1 5.2.56 10.36 10.36 0 0 1-4.76 2 1 1 0 0 0-.7.37 1 1 0 0 0-.23.76l.58 4.22h-7.52a15 15 0 0 0-15 15 1 1 0 0 0 1 1h23.43a347.9 347.9 0 0 1-.12 71l-.23 2.62c-1.15 11-2.26 21.53-2.9 31.14h-9.3a1 1 0 0 0-1 1v7.62a1 1 0 0 0 1 1h1.5a3.57 3.57 0 1 1 0 7.14h-10a3.9 3.9 0 0 0-3.9 3.9v29.08a3.9 3.9 0 0 0 3.9 3.9h41.82a3.9 3.9 0 0 0 3.9-3.9v-8.17h97.07a15 15 0 0 0 15-15 1 1 0 0 0-1.02-1zM281.46 40.4v.25l-.4-.26h.37zm-20.7 11.94a12.92 12.92 0 0 1 21.1-9q.6 4.5 1.07 9h-22.18zm24 75.83l.26-2.6a350.87 350.87 0 0 0-1.32-83.64l-1-7.06a15.3 15.3 0 0 0 6.14-3.3 1 1 0 0 0-.14-1.6 13.38 13.38 0 0 0-6.88-1.55L280 14.75a.4.4 0 0 1 .17-.4.4.4 0 0 1 .43 0c5.33 2.65 32 18.16 33.05 63.3.22 9.27-1.92 19.04-6.92 31.56a17.17 17.17 0 0 0-7.88-1.5 1 1 0 0 0-.8 1.47 14.76 14.76 0 0 0 6.18 6c-1.74 4-3.58 7.94-5.43 11.9-4.9 10.5-9.88 21.24-12.62 32h-4.3c.62-9.5 1.72-20 2.87-30.9zm12.56 74.56a.44.44 0 0 1 .15.3v2.83a42.6 42.6 0 0 1-16.17-33.62c0-3.5.2-7.23.43-11.12h4a61.75 61.75 0 0 0-1.73 13.64c0 15.24 11.1 25.98 13.32 27.97zm-37.15-23a1.9 1.9 0 0 1 1.9-1.9h10a5.58 5.58 0 1 0 0-11.15h-.5v-5.6h8.16c-.23 3.87-.4 7.6-.43 11.1a46.53 46.53 0 0 0 1.3 11 87.6 87.6 0 0 0-20.42-.17v-3.3zm45.6 29.08a1.9 1.9 0 0 1-1.9 1.9h-41.8a1.9 1.9 0 0 1-1.9-1.9v-23.7a86.55 86.55 0 0 1 21 .3A43.16 43.16 0 0 0 298 208.7a1 1 0 0 0 .47.13 1 1 0 0 0 .52-.15 1 1 0 0 0 .48-.86v-4.8a2.48 2.48 0 0 0-.8-1.77 42.4 42.4 0 0 1-10-14 27.84 27.84 0 0 1 2.9 1.18c4.15 2 7.62 3 10.38 3a8.42 8.42 0 0 0 3.06-.52 6 6 0 0 0 .72-.33v18.28zm0-20.87a3 3 0 0 1-1.55 1.1c-1.74.6-5.18.7-11.7-2.47a32.14 32.14 0 0 0-4.74-1.8 30.93 30.93 0 0 1-1.7-10 60.2 60.2 0 0 1 1.7-13.65H295v5.62h-.48a5.58 5.58 0 1 0 0 11.16h9.33a1.9 1.9 0 0 1 1.9 1.9V188zm-1.9-12.1h-9.32a3.57 3.57 0 1 1 0-7.14H296a1 1 0 0 0 1-1v-7.63a1 1 0 0 0-1-1h-7.8c2.73-10.47 7.6-20.95 12.37-31.2 1.86-4 3.72-8 5.52-12.1a1.94 1.94 0 0 0 .2-1.53 1.4 1.4 0 0 0-.67-.66 11.94 11.94 0 0 1-4.9-3.92 16.85 16.85 0 0 1 6 1.75 1 1 0 0 0 .83.07 1 1 0 0 0 .6-.57c5.4-13.26 7.7-23.55 7.47-33.36-.38-15.63-3.77-27.8-8.3-37.17h66.23a13 13 0 0 1 13 13V184.7h-71a1 1 0 0 0-1 1 13 13 0 0 1-6.75 11.36v-17.3a3.9 3.9 0 0 0-3.92-3.9zm101 22.8H309a15 15 0 0 0 7.45-11.95h101.3a13 13 0 0 1-12.9 12z"/>
</svg>
