<svg id="Delete_Columns" data-name="Delete Columns" xmlns="http://www.w3.org/2000/svg" viewBox="0 0 18 18"><defs><style>.cls-1,.cls-4{fill:#444;}.cls-1,.cls-2{stroke:#444;stroke-linecap:round;stroke-linejoin:round;}.cls-2{fill:none;}.cls-3{opacity:0.4;}</style></defs><title>Icons-</title><rect class="cls-1" x="2.5" y="5.5" width="8" height="3" rx="0.5" ry="0.5"/><line class="cls-2" x1="16.5" y1="5.5" x2="13.5" y2="8.5"/><line class="cls-2" x1="13.5" y1="5.5" x2="16.5" y2="8.5"/><g class="cls-3"><path class="cls-4" d="M8,11h4V9a1,1,0,0,0-1-1H8v3Z"/><path class="cls-4" d="M7,11V8H4A1,1,0,0,0,3,9v2H7Z"/><path class="cls-4" d="M7,12H3v2a1,1,0,0,0,1,1H7V12Z"/><path class="cls-4" d="M8,12v3h3a1,1,0,0,0,1-1V12H8Z"/><path class="cls-4" d="M8,6h3a1,1,0,0,0,1-1V3a1,1,0,0,0-1-1H8V6Z"/><path class="cls-4" d="M4,6H7V2H4A1,1,0,0,0,3,3V5A1,1,0,0,0,4,6Z"/></g></svg>