<svg id="Insert_Columns" data-name="Insert Columns" xmlns="http://www.w3.org/2000/svg" viewBox="0 0 18 18"><defs><style>.cls-1{opacity:0.4;}.cls-2,.cls-3{fill:#444;}.cls-3,.cls-4{stroke:#444;stroke-linecap:round;stroke-linejoin:round;}.cls-4{fill:none;stroke-width:2px;}</style></defs><title>Icons-</title><g class="cls-1"><path class="cls-2" d="M11,11h4V9a1,1,0,0,0-1-1H11v3Z"/><path class="cls-2" d="M10,11V8H7A1,1,0,0,0,6,9v2h4Z"/><path class="cls-2" d="M10,12H6v2a1,1,0,0,0,1,1h3V12Z"/><path class="cls-2" d="M11,12v3h3a1,1,0,0,0,1-1V12H11Z"/><path class="cls-2" d="M11,6h3a1,1,0,0,0,1-1V3a1,1,0,0,0-1-1H11V6Z"/><path class="cls-2" d="M7,6h3V2H7A1,1,0,0,0,6,3V5A1,1,0,0,0,7,6Z"/></g><polygon class="cls-3" points="3.5 9 1.5 7 3.5 5 3.5 9"/><line class="cls-4" x1="5" y1="7" x2="3" y2="7"/><rect class="cls-3" x="7.5" y="5.5" width="8" height="3" rx="0.5" ry="0.5"/></svg>