<svg viewbox="0 0 18 18">
  <path class="ql-fill" d="M15.5,7H13.861a4.015,4.015,0,0,0,1.914-2.975,1.8,1.8,0,0,0-1.6-1.751A1.922,1.922,0,0,0,12.021,3.7a0.5,0.5,0,1,0,.957.291,0.917,0.917,0,0,1,1.053-.725,0.81,0.81,0,0,1,.744.762c0,1.077-1.164,1.925-1.934,2.486A1.423,1.423,0,0,0,12,7.5a0.5,0.5,0,0,0,.5.5h3A0.5,0.5,0,0,0,15.5,7Z"/>
  <path class="ql-fill" d="M9.651,5.241a1,1,0,0,0-1.41.108L6,7.964,3.759,5.349a1,1,0,1,0-1.519,1.3L4.683,9.5,2.241,12.35a1,1,0,1,0,1.519,1.3L6,11.036,8.241,13.65a1,1,0,0,0,1.519-1.3L7.317,9.5,9.759,6.651A1,1,0,0,0,9.651,5.241Z"/>
</svg>