<svg viewBox="0 0 18 18">
  <path class="ql-fill" d="M16.73975,13.81445v.43945a.54085.54085,0,0,1-.605.60547H11.855a.58392.58392,0,0,1-.64893-.60547V14.0127c0-2.90527,3.39941-3.42187,3.39941-4.55469a.77675.77675,0,0,0-.84717-.78125,1.17684,1.17684,0,0,0-.83594.38477c-.2749.26367-.561.374-.85791.13184l-.4292-.34082c-.30811-.24219-.38525-.51758-.1543-.81445a2.97155,2.97155,0,0,1,2.45361-1.17676,2.45393,2.45393,0,0,1,2.68408,2.40918c0,2.45312-3.1792,2.92676-3.27832,3.93848h2.79443A.54085.54085,0,0,1,16.73975,13.81445ZM9,3A.99974.99974,0,0,0,8,4V8H3V4A1,1,0,0,0,1,4V14a1,1,0,0,0,2,0V10H8v4a1,1,0,0,0,2,0V4A.99974.99974,0,0,0,9,3Z"/>
</svg>