<svg viewBox="0 0 18 18">
  <path class="ql-fill" d="M14.51758,9.64453a1.85627,1.85627,0,0,0-1.24316.38477H13.252a1.73532,1.73532,0,0,1,1.72754-1.4082,2.66491,2.66491,0,0,1,.5498.06641c.35254.05469.57227.01074.70508-.40723l.16406-.5166a.53393.53393,0,0,0-.373-.75977,4.83723,4.83723,0,0,0-1.17773-.14258c-2.43164,0-3.7627,2.17773-3.7627,4.43359,0,2.47559,1.60645,3.69629,3.19043,3.69629A2.70585,2.70585,0,0,0,16.96,12.19727,2.43861,2.43861,0,0,0,14.51758,9.64453Zm-.23047,3.58691c-.67187,0-1.22168-.81445-1.22168-1.45215,0-.47363.30762-.583.72559-.583.96875,0,1.27734.59375,1.27734,1.12207A.82182.82182,0,0,1,14.28711,13.23145ZM10,4V14a1,1,0,0,1-2,0V10H3v4a1,1,0,0,1-2,0V4A1,1,0,0,1,3,4V8H8V4a1,1,0,0,1,2,0Z"/>
</svg>