<svg xmlns="http://www.w3.org/2000/svg" viewBox="0 0 150 150">
	<path d="M0 0h150v150H0V0Z" style="fill:none" />
	<path
		d="M138.46 86.65c-2.81-2.06-8.53-4.62-13.36-6.26.5-3.15.68-7.1-.09-11.67h-.02v-.11h.02v.11a32.61 32.61 0 0 0 13.45-5.77c3.83-2.84 3.09-6.04 2.51-7.94a67.207 67.207 0 0 0-28.45-37.08 67.237 67.237 0 0 0-45.75-9.55 67.183 67.183 0 0 0-40.9 22.61C15.38 43.17 9.61 58.72 9.61 74.8s5.77 31.63 16.26 43.81a67.183 67.183 0 0 0 40.9 22.61c15.9 2.39 32.14-1 45.75-9.55a67.207 67.207 0 0 0 28.45-37.08c.58-1.9 1.32-5.1-2.51-7.94Zm-4.32 5.83a59.932 59.932 0 0 1-25.38 33.07 59.918 59.918 0 0 1-40.81 8.5 59.9 59.9 0 0 1-36.49-20.17c-9.35-10.87-14.5-24.74-14.5-39.08s5.15-28.21 14.5-39.08a59.9 59.9 0 0 1 36.49-20.17c14.18-2.14 28.66.87 40.81 8.5a59.932 59.932 0 0 1 25.38 33.07c0 .03.02.07.04.1-2.07 1.5-6.86 3.3-11.14 4.57l-.04-.08c-.61-1.51-1.32-2.99-2.14-4.4l-6.81-11.8a34.992 34.992 0 0 0-30.29-17.49H70.13c-6.14 0-12.17 1.62-17.49 4.69a35.074 35.074 0 0 0-12.8 12.8l-6.81 11.8c-3.07 5.32-4.69 11.35-4.69 17.49s1.62 12.17 4.69 17.49l6.81 11.8c3.07 5.31 7.49 9.73 12.8 12.8a34.992 34.992 0 0 0 17.49 4.69h13.63a34.992 34.992 0 0 0 30.29-17.49l6.81-11.78c.82-1.41 1.53-2.89 2.14-4.4l.04-.09s0-.01.01-.02h.01c4.02.62 7.83 2.19 11.12 4.58 0 .03-.02.07-.04.1Z"
		style="fill:#006bff" />
	<path
		d="M123.04 61.8c-1.53.25-3.08.39-4.64.39-10.19 0-14.01-3.39-18.43-7.31-4.27-3.79-9.58-8.49-19.25-8.49h-5.78c-6.99 0-13.35 2.54-17.89 7.14-4.44 4.5-6.89 10.66-6.89 17.34v7.9c0 6.68 2.45 12.84 6.89 17.34 4.55 4.6 10.9 7.14 17.89 7.14h5.78c9.67 0 14.98-4.71 19.25-8.49 4.42-3.9 8.25-7.31 18.43-7.31 1.55 0 3.11.12 4.64.37.88-2.2 2.17-7.92 2.06-7.43-2.32-.21-4.5-.11-6.72-.11-23.41 0-22.19 15.81-37.69 15.81h-5.78c-10.64 0-17.63-7.6-17.63-17.33v-7.92c0-9.72 6.99-17.32 17.63-17.32h5.78c15.5 0 14.28 15.8 37.69 15.8 2.22 0 4.43-.2 6.61-.6v-.11c-.42-2.33-1.07-4.62-1.95-6.82Z"
		style="fill:#0ae8f0" />
</svg>
