<svg fill="none" xmlns="http://www.w3.org/2000/svg" viewBox="0 0 288 432">
	<path d="M1.466 2.2h285.069v427.6H1.466z" />
	<path
		d="M144 216c0-39.359 31.907-71.267 71.267-71.267 39.359 0 71.267 31.908 71.267 71.267 0 39.36-31.908 71.267-71.267 71.267C175.907 287.267 144 255.36 144 216Z"
		fill="#1ABCFE" />
	<path
		d="M1.466 358.534c0-39.359 31.907-71.267 71.267-71.267H144v71.267c0 39.36-31.907 71.267-71.267 71.267S1.466 397.894 1.466 358.534Z"
		fill="#0ACF83" />
	<path
		d="M144 2.2v142.533h71.267c39.36 0 71.267-31.907 71.267-71.267S254.627 2.2 215.267 2.2H144Z"
		fill="#FF7262" />
	<path
		d="M1.466 73.466c0 39.36 31.907 71.267 71.267 71.267H144V2.199H72.733c-39.36 0-71.267 31.908-71.267 71.267Z"
		fill="#F24E1E" />
	<path
		d="M1.466 216c0 39.36 31.907 71.267 71.267 71.267H144V144.733H72.733c-39.36 0-71.267 31.908-71.267 71.267Z"
		fill="#A259FF" />
</svg>
