<svg xmlns="http://www.w3.org/2000/svg" viewBox="0 0 92 92">
	<circle cx="46" cy="46" fill="#2bb673" r="46" />
	<path
		d="M55.1 52.2c-1.9 0-3.4 1.7-3.1 3.7.3 1.5 1.7 2.5 3.2 2.5H60l2.8-.4c-4.5 6.6-12.2 9.6-20.7 8.2-6.9-1.1-12.8-5.8-15.3-12.3-5.7-14.8 5.1-29 19.2-29 7.3 0 13.8 4.3 17.5 9.5v.1c1 1.4 2.9 1.8 4.3.8 1.3-.9 1.7-2.7.9-4.1-5.1-8-14.3-13.1-24.6-12.4C30.7 19.9 19.8 30.9 19 44.4c-.9 15.7 11.5 28.4 27 28.4 8.1 0 15.4-3.5 20.3-9.3l-.6 3.3v3c0 1.5 1 2.9 2.5 3.2 2 .4 3.7-1.2 3.7-3.1V52.2z"
		fill="#fff" />
</svg>
