<svg viewBox="0 0 72 72" fill="none" xmlns="http://www.w3.org/2000/svg">
	<rect width="72" height="72" rx="14.4" fill="#C8F169" />
	<path
		d="M57.25 48.076c0-.403 0-.605-.04-.77a1.445 1.445 0 0 0-1.067-1.069c-.166-.04-.368-.04-.77-.04h-1.306c-.403 0-.604 0-.77-.04a1.445 1.445 0 0 1-1.068-1.067c-.04-.167-.04-.368-.04-.77v-9.73c0-.404 0-.606.04-.771a1.446 1.446 0 0 1 1.068-1.068c.166-.04.368-.04.771-.04h1.303c.403 0 .604 0 .771-.039a1.445 1.445 0 0 0 1.069-1.067c.039-.167.039-.368.039-.77V16.88c0-.403 0-.605-.04-.77a1.445 1.445 0 0 0-1.067-1.07c-.166-.039-.368-.039-.77-.039h-8.201c-.168-.006-.335 0-.502.02-.368.061-.7.263-.922.563a3.257 3.257 0 0 0-.247.437l-7.855 15.275-7.757-15.267c-.07-.153-.152-.3-.245-.44a1.445 1.445 0 0 0-.925-.568c-.168-.02-.336-.026-.504-.02H17.136c-.402 0-.604 0-.77.04a1.445 1.445 0 0 0-1.075 1.068c-.041.166-.041.368-.041.77v6.335c0 .403 0 .604.04.77a1.445 1.445 0 0 0 1.068 1.068c.166.04.368.04.77.04h1.259c.403 0 .605 0 .77.04a1.445 1.445 0 0 1 1.068 1.068c.04.166.04.367.04.771v9.207c0 .403 0 .604-.04.77a1.445 1.445 0 0 1-1.068 1.068c-.166.04-.368.04-.77.04H17.13c-.402 0-.604 0-.77.04a1.445 1.445 0 0 0-1.07 1.068c-.041.166-.041.367-.041.771v15.185c0 .403 0 .604.04.771a1.444 1.444 0 0 0 1.068 1.067c.166.041.368.041.77.041h11.334c.404 0 .605 0 .771-.04a1.444 1.444 0 0 0 1.067-1.068c.04-.167.04-.368.04-.77v-7.046c0-.403 0-.605-.04-.77a1.445 1.445 0 0 0-1.067-1.069c-.167-.04-.368-.04-.77-.04h-1.245c-.403 0-.604 0-.771-.04a1.446 1.446 0 0 1-1.067-1.067c-.04-.167-.04-.368-.04-.77V30.042l8.179 16.185c.216.428.324.641.437.752a.963.963 0 0 0 1.334.014c.117-.11.229-.321.453-.744l9.075-17.131v15.2c0 .403 0 .604-.04.771a1.445 1.445 0 0 1-1.069 1.067c-.167.04-.368.04-.77.04h-2.424c-.403 0-.604 0-.77.04a1.445 1.445 0 0 0-1.068 1.069c-.04.165-.04.367-.04.77v7.045c0 .403 0 .604.04.771a1.444 1.444 0 0 0 1.067 1.067c.167.041.368.041.77.041h14.857c.404 0 .605 0 .771-.04a1.444 1.444 0 0 0 1.067-1.068c.04-.167.04-.368.04-.77l.001-7.046Z"
		fill="#043F2E" />
</svg>
