<svg width="102" height="10" viewBox="0 0 102 10" fill="none" xmlns="http://www.w3.org/2000/svg">
<path d="M5 0.4C7.64 0.4 9.8 2.56 9.8 5.2C9.8 5.212 9.8 5.212 9.8 5.212C9.8 6.532 9.26 7.732 8.384 8.596L9.8 10H8.66L7.772 9.124C6.992 9.676 6.032 10 5 10C2.348 10 0.2 7.852 0.2 5.2C0.2 2.56 2.348 0.4 5 0.4ZM7.82 8.032C8.54 7.312 8.984 6.316 8.984 5.212V5.2C8.984 3.004 7.196 1.216 5 1.216C2.792 1.216 1.004 3.004 1.004 5.2C1.004 7.408 2.792 9.196 5 9.196C5.804 9.196 6.56 8.956 7.184 8.536L5.84 7.192L6.416 6.628L7.82 8.032ZM20.984 5.2V0.4H21.8V5.2C21.8 7.852 19.64 10 17 10C14.348 10 12.2 7.852 12.2 5.2V0.4H13.004V5.2C13.004 7.408 14.792 9.196 17 9.196C19.196 9.196 20.984 7.408 20.984 5.2ZM24.188 10V0.4H24.992L25.004 10H24.188ZM34.3952 9.196H36.2672H36.9992V10H34.3952H27.3992V9.388V9.196V0.4H28.2032V9.196H34.3952ZM46.3952 9.196H48.2672H48.9992V10H46.3952H39.3992V9.388V9.196V0.4H40.2032V9.196H46.3952ZM61.0039 0.4C63.6439 0.4 65.8039 2.56 65.8039 5.2V10H64.9879V5.2C64.9879 3.004 63.1999 1.216 61.0039 1.216C58.7959 1.216 57.0079 3.004 57.0079 5.2V10H56.2039V5.2C56.2039 2.56 58.3519 0.4 61.0039 0.4ZM73.0039 0.4H77.8039V1.216H73.0039C70.7959 1.216 69.0079 3.004 69.0079 5.2C69.0079 7.408 70.7959 9.196 73.0039 9.196H77.8039V10H73.0039C70.3519 10 68.2039 7.852 68.2039 5.2C68.2039 2.56 70.3519 0.4 73.0039 0.4ZM73.5679 5.2C73.5679 4.876 73.8439 4.6 74.1679 4.6C74.5039 4.6 74.7799 4.876 74.7799 5.2C74.7799 5.536 74.5039 5.812 74.1679 5.812C73.8439 5.812 73.5679 5.536 73.5679 5.2ZM88.6639 0.4H89.8039L85.5679 5.2L89.8039 10H88.6639L85.0039 5.848L81.3319 10H80.2039L84.4279 5.2L80.2039 0.4H81.3319L85.0039 4.564L88.6639 0.4ZM92.2039 1.216V0.4H101.804V1.216H97.3999V10H96.5959V1.216H92.2039Z" fill="#EEEEEC"/>
</svg>
