<svg aria-hidden="true" role="graphics-symbol" viewBox="0 0 16 16" class="bold" style="width: 16px; height: 16px; display: block; fill: inherit; flex-shrink: 0;"><g><path d="M5.067 13.014c-.772 0-1.223-.451-1.223-1.238V4.36c0-.786.45-1.237 1.223-1.237h3.5c1.949 0 3.131.943 3.131 2.488 0 1.1-.793 1.97-1.948 2.12v.061c1.401.068 2.4 1.046 2.4 2.386 0 1.716-1.347 2.837-3.466 2.837H5.067zm1.238-5.81h1.34c1.025 0 1.633-.459 1.633-1.225 0-.738-.553-1.168-1.483-1.168h-1.49v2.392zm0 4.142h1.6c1.148 0 1.742-.472 1.742-1.347 0-.854-.642-1.32-1.804-1.32H6.305v2.667z"></path></g></svg>