<svg aria-hidden="true" role="graphics-symbol" viewBox="0 0 16 16" class="strikethrough" style="width: 16px; height: 16px; display: block; fill: inherit; flex-shrink: 0;"><g><path d="M7.973 13.191a5.695 5.695 0 01-1.75-.253 3.694 3.694 0 01-1.306-.71 2.376 2.376 0 01-.71-1.101 1.514 1.514 0 01-.062-.424c0-.205.061-.369.184-.492a.71.71 0 01.513-.185c.155 0 .28.034.376.103a.92.92 0 01.273.328c.128.296.31.554.547.772.237.215.52.379.848.493.328.114.69.17 1.087.17.45 0 .847-.066 1.19-.198.345-.136.614-.321.806-.553.196-.237.294-.506.294-.807 0-.383-.15-.688-.451-.916-.301-.232-.796-.43-1.484-.595L7.043 8.53c-.939-.21-1.636-.528-2.092-.957-.451-.433-.677-.998-.677-1.695 0-.574.158-1.082.472-1.524.32-.443.757-.787 1.313-1.033.556-.25 1.191-.376 1.907-.376.601 0 1.148.09 1.64.267.497.173.91.415 1.238.725.328.31.547.67.656 1.08a.82.82 0 01.034.177c.01.055.014.11.014.164a.625.625 0 01-.185.472c-.123.119-.29.178-.499.178-.287 0-.506-.132-.656-.397a2.244 2.244 0 00-.506-.745 1.98 1.98 0 00-.752-.458 2.897 2.897 0 00-.984-.157c-.406 0-.766.064-1.08.191a1.742 1.742 0 00-.745.527 1.233 1.233 0 00-.267.78c0 .36.148.648.444.867.301.214.784.399 1.45.554l1.169.267c1.016.227 1.756.553 2.221.977.47.42.704.998.704 1.736 0 .611-.162 1.147-.485 1.607-.32.456-.77.809-1.354 1.06-.578.25-1.262.375-2.05.375zM2.552 8.386a.363.363 0 01-.267-.11.378.378 0 01-.11-.266c0-.1.037-.187.11-.26a.352.352 0 01.267-.116h10.89c.104 0 .193.039.266.116.073.073.11.16.11.26s-.037.189-.11.266a.363.363 0 01-.267.11H2.551z"></path></g></svg>