<svg aria-hidden="true" role="graphics-symbol" viewBox="0 0 16 16" class="underline" style="width: 16px; height: 16px; display: block; fill: inherit; flex-shrink: 0;"><g><path d="M8 13.191c-.843 0-1.572-.152-2.188-.458a3.46 3.46 0 01-1.421-1.292c-.333-.551-.5-1.191-.5-1.92V3.724c0-.242.071-.431.213-.568.14-.141.33-.212.567-.212.246 0 .44.071.58.212.147.137.22.326.22.568v5.653c0 .488.098.914.294 1.278.2.36.49.64.868.841.378.2.834.3 1.367.3.798 0 1.417-.22 1.86-.662.446-.442.67-1.028.67-1.757V3.724c0-.242.07-.431.211-.568.142-.141.33-.212.568-.212.246 0 .44.071.58.212.147.137.22.326.22.568V9.52c0 .729-.167 1.369-.5 1.92-.332.552-.809.982-1.428 1.292-.616.306-1.342.458-2.181.458zm-3.623 2.174a.487.487 0 01-.349-.136.464.464 0 01-.136-.342c0-.137.045-.25.136-.342a.487.487 0 01.349-.137h7.24c.14 0 .257.046.348.137a.453.453 0 01.143.342c0 .136-.048.25-.143.341a.472.472 0 01-.349.137H4.377z"></path></g></svg>