<svg id="Sound" viewbox="0 0 18 18" xmlns="http://www.w3.org/2000/svg">
<defs>
  <style>
  .cls-1{fill:#444;}.cls-2{fill:none;stroke:#444;stroke-linecap:round;stroke-linejoin:round;stroke-width:2px;}
  </style>
</defs>
<ellipse class="cls-1" cx="10.5" cy="14" rx="2.5" ry="2"></ellipse>
<path class="cls-2" d="M12,14V3c0,1.5,3,2.021,3,5"></path>
<path class="cls-1" d="M7,4A5,5,0,0,0,7,14a3.191,3.191,0,0,1,3-2.957V5.023A4.955,4.955,0,0,0,7,4ZM4.06,8.412a0.5,0.5,0,0,1-.49.4,0.485,0.485,0,0,1-.1-0.01,0.5,0.5,0,0,1-.393-0.588A3.98,3.98,0,0,1,6.216,5.079a0.5,0.5,0,0,1,.2.98A2.985,2.985,0,0,0,4.06,8.412ZM7,10A1,1,0,1,1,8,9,1,1,0,0,1,7,10Z"></path></svg>