<svg data-name="Show Authors" id="Show_Authors" viewbox="0 0 18 18" xmlns="http://www.w3.org/2000/svg">
<defs>
  <style>
  .cls-1{fill:none;}.cls-1,.cls-2{stroke:#444;stroke-linecap:round;stroke-linejoin:round;stroke-width:2px;}.cls-2,.cls-3{fill:#444;}.cls-3{fill-rule:evenodd;}
  </style>
</defs>
<line class="cls-1" x1="3" x2="15" y1="15" y2="15"></line>
<path class="cls-2" d="M9,8H9a3,3,0,0,1,3,3v0a0,0,0,0,1,0,0H6a0,0,0,0,1,0,0v0A3,3,0,0,1,9,8Z"></path>
<path class="cls-3" d="M11,5.01C11,6.021,10,9,9,9S7,6.021,7,5.01c0-1.651.292-2.99,2-2.99S11,3.359,11,5.01Z"></path></svg>