<svg viewBox="0 0 18 18">
  <path class="ql-fill" d="M10,4V14a1,1,0,0,1-2,0V10H3v4a1,1,0,0,1-2,0V4A1,1,0,0,1,3,4V8H8V4a1,1,0,0,1,2,0Zm7.05371,7.96582v.38477c0,.39648-.165.60547-.46191.60547h-.47314v1.29785a.54085.54085,0,0,1-.605.60547h-.69336a.54085.54085,0,0,1-.605-.60547V12.95605H11.333a.5412.5412,0,0,1-.60547-.60547v-.15332a1.199,1.199,0,0,1,.22021-.748l2.56348-4.05957a.7819.7819,0,0,1,.72607-.39648h1.27637a.54085.54085,0,0,1,.605.60547v3.7627h.33008A.54055.54055,0,0,1,17.05371,11.96582ZM14.28125,8.7207h-.022a4.18969,4.18969,0,0,1-.38525.81348l-1.188,1.80469v.02246h1.5293V9.60059A7.04058,7.04058,0,0,1,14.28125,8.7207Z"/>
</svg>