<svg viewBox="0 0 18 18">
  <path class="ql-fill" d="M10,4V14a1,1,0,0,1-2,0V10H3v4a1,1,0,0,1-2,0V4A1,1,0,0,1,3,4V8H8V4a1,1,0,0,1,2,0Zm6.06787,9.209H14.98975V7.59863a.54085.54085,0,0,0-.605-.60547h-.62744a1.01119,1.01119,0,0,0-.748.29688L11.645,8.56641a.5435.5435,0,0,0-.022.8584l.28613.30762a.53861.53861,0,0,0,.84717.0332l.09912-.08789a1.2137,1.2137,0,0,0,.2417-.35254h.02246s-.01123.30859-.01123.60547V13.209H12.041a.54085.54085,0,0,0-.605.60547v.43945a.54085.54085,0,0,0,.605.60547h4.02686a.54085.54085,0,0,0,.605-.60547v-.43945A.54085.54085,0,0,0,16.06787,13.209Z"/>
</svg>