<svg viewBox="0 0 18 18">
  <path class="ql-fill" d="M16.74023,12.18555a2.75131,2.75131,0,0,1-2.91553,2.80566,3.908,3.908,0,0,1-2.25537-.68164.54809.54809,0,0,1-.13184-.8252L11.73438,13c.209-.34082.48389-.36328.8252-.1543a2.23757,2.23757,0,0,0,1.1001.33008,1.01827,1.01827,0,0,0,1.1001-.96777c0-.61621-.53906-.97949-1.25439-.97949a2.15554,2.15554,0,0,0-.64893.09961,1.15209,1.15209,0,0,1-.814.01074l-.12109-.04395a.64116.64116,0,0,1-.45117-.71484l.231-3.00391a.56666.56666,0,0,1,.62744-.583H15.541a.54085.54085,0,0,1,.605.60547v.43945a.54085.54085,0,0,1-.605.60547H13.41748l-.04395.72559a1.29306,1.29306,0,0,1-.04395.30859h.022a2.39776,2.39776,0,0,1,.57227-.07715A2.53266,2.53266,0,0,1,16.74023,12.18555ZM9,3A.99974.99974,0,0,0,8,4V8H3V4A1,1,0,0,0,1,4V14a1,1,0,0,0,2,0V10H8v4a1,1,0,0,0,2,0V4A.99974.99974,0,0,0,9,3Z"/>
</svg>