<svg xmlns="http://www.w3.org/2000/svg" width="24" height="24" viewBox="0 0 24 24">
<path class="ql-fill" d="M12.983 9.676a4.351 4.351 0 0 1 .744 6.745l-2.306 2.306a4.347 4.347 0 1 1-6.148-6.148l1.823-1.824c.113.435.32.832.6 1.167l-1.539 1.54a3.097 3.097 0 0 0 4.238 4.515l.142-.134 2.306-2.306a3.097 3.097 0 0 0 .134-4.237l-.134-.143-.054-.05a2.992 2.992 0 0 0 .194-1.43zm5.744-4.403a4.347 4.347 0 0 1 0 6.148l-1.533 1.533c-.29-.31-.645-.56-1.043-.725l1.692-1.692a3.097 3.097 0 0 0 .134-4.237l-.134-.143a3.097 3.097 0 0 0-4.238-.134l-.142.134-2.306 2.306a3.097 3.097 0 0 0 1.197 5.124c-.195.361-.316.769-.347 1.201a4.347 4.347 0 0 1-1.734-7.21l2.306-2.305a4.347 4.347 0 0 1 6.148 0z" fill="#464D5A" fill-rule="nonzero"/>
</svg>