<svg xmlns="http://www.w3.org/2000/svg" width="24" height="24" viewBox="0 0 24 24">
<g fill="#464D5A" fill-rule="evenodd">
<path d="M20 16.75V18H9v-1.25h11zm0-5.37v1.25H9v-1.25h11zM20 6v1.25H9V6h11z"/>
<g fill-rule="nonzero" stroke="#464D5A" stroke-width=".3"><path d="M6.25 5.087h.37V8.3h-.491V5.677c-.194.184-.441.319-.738.405v-.486a1.87 1.87 0 0 0 .86-.509zM6.206 10.224c.306 0 .562.086.76.266.194.18.293.409.293.692 0 .28-.108.532-.315.761-.126.13-.346.302-.666.518-.346.229-.553.432-.621.607h1.607v.432H5.05c0-.32.103-.598.319-.841.117-.14.36-.333.724-.585a3.37 3.37 0 0 0 .46-.37.784.784 0 0 0 .22-.526c0-.18-.05-.315-.148-.405-.1-.09-.248-.135-.437-.135-.203 0-.356.068-.459.207-.108.135-.162.329-.171.59h-.49c.004-.36.107-.648.31-.864.207-.234.486-.347.828-.347zM6.188 15.524c.324 0 .58.077.778.234a.802.802 0 0 1 .288.648c0 .351-.18.59-.53.706a.898.898 0 0 1 .431.266.68.68 0 0 1 .162.468c0 .297-.103.54-.306.729-.216.189-.499.288-.841.288-.328 0-.594-.085-.792-.252-.225-.189-.351-.464-.378-.824h.495c.009.216.077.383.212.5a.65.65 0 0 0 .459.162.707.707 0 0 0 .499-.18.543.543 0 0 0 .166-.4c0-.19-.058-.329-.175-.419-.108-.09-.27-.135-.481-.135H5.94v-.369h.229c.198 0 .347-.045.446-.13a.471.471 0 0 0 .153-.374.485.485 0 0 0-.14-.369c-.099-.09-.247-.13-.436-.13-.194 0-.347.049-.455.148-.108.099-.175.248-.193.446h-.482c.027-.32.144-.567.356-.747.198-.18.454-.266.769-.266z"/></g>
</g>
</svg>