<svg data-name="Text Size" id="Text_Size" viewbox="0 0 18 18" xmlns="http://www.w3.org/2000/svg">
<defs>
  <style>
  .cls-1{fill:none;stroke:#444;stroke-linecap:round;stroke-linejoin:round;stroke-width:2px;}.cls-2{fill:#444;}
  </style>
</defs>
<polyline class="cls-1" points="3.5 14 7 4 10.5 14"></polyline>
<line class="cls-1" x1="9.45" x2="4.55" y1="11" y2="11"></line>
<path class="cls-2" d="M12.09,7.55l1.7-1.473a0.337,0.337,0,0,1,.429,0l1.7,1.473A0.261,0.261,0,0,1,15.7,8H12.3A0.261,0.261,0,0,1,12.09,7.55Z"></path>
<path class="cls-2" d="M12.09,10.45l1.7,1.473a0.337,0.337,0,0,0,.429,0l1.7-1.473A0.261,0.261,0,0,0,15.7,10H12.3A0.261,0.261,0,0,0,12.09,10.45Z"></path></svg>