<svg xmlns="http://www.w3.org/2000/svg" width="24" height="24" viewBox="0 0 24 24"><g fill="#464D5A" fill-rule="evenodd"><path d="M14.743 12.443c.206.17.396.36.566.568a3.28 3.28 0 0 1 .686 2.2 3.58 3.58 0 0 1-.545 1.94 3.709 3.709 0 0 1-1.545 1.352 5.26 5.26 0 0 1-2.342.496 6.022 6.022 0 0 1-2.544-.537A6.244 6.244 0 0 1 7 16.986l.909-1.033c.472.53 1.042.962 1.675 1.27.631.307 1.321.466 2.02.465a3.29 3.29 0 0 0 2.13-.64 2.317 2.317 0 0 0 .504-2.84 2.132 2.132 0 0 0-.726-.722 12.82 12.82 0 0 0-1.252-.64l-.889-.403h3.372zM11.715 5a5.244 5.244 0 0 1 3.836 1.662l-.808.97a4.154 4.154 0 0 0-3.028-1.29 2.855 2.855 0 0 0-1.848.61c-.46.364-.723.932-.707 1.527-.006.371.107.734.323 1.032.201.278.455.51.748.682.282.186.656.35 1.14.568l.073.032H8.563a2.971 2.971 0 0 1-.886-2.273 3.316 3.316 0 0 1 .514-1.817c.38-.55.9-.982 1.504-1.249A4.598 4.598 0 0 1 11.715 5z"/><path d="M5 12h14v1.25H5z"/></g></svg>