<svg id="Subscript" viewbox="0 0 18 18" xmlns="http://www.w3.org/2000/svg">
<defs>
  <style>
  .cls-1{fill:none;stroke:#444;stroke-linecap:round;stroke-linejoin:round;}.cls-2{fill:#444;}
  </style>
</defs>
<path class="cls-1" d="M15.5,15.5h-3c0-.391,2.775-1.545,2.775-3.475a1.409,1.409,0,0,0-2.775-.182"></path>
<path class="cls-2" d="M6.215,4a6.281,6.281,0,0,0-3,.786,0.712,0.712,0,0,0-.287,1.048L3.112,6.192a0.663,0.663,0,0,0,1,.318,4,4,0,0,1,1.9-.543,1.523,1.523,0,0,1,1.7,1.685V7.877H7.345C5.3,7.877,2,8.345,2,11.135A2.857,2.857,0,0,0,5.031,14,3.337,3.337,0,0,0,7.9,12.2H7.937a1.954,1.954,0,0,0-.036.412v0.375a0.676,0.676,0,0,0,.735.786h0.61A0.681,0.681,0,0,0,10,12.989V7.8A3.47,3.47,0,0,0,6.215,4ZM7.74,9.675a2.394,2.394,0,0,1-2.1,2.509A1.265,1.265,0,0,1,4.26,10.929c0-1.423,1.955-1.61,3.1-1.61H7.74V9.675Z"></path></svg>