<svg xmlns="http://www.w3.org/2000/svg" width="24" height="24" viewBox="0 0 24 24"><g fill="none" fill-rule="evenodd"><path d="M19.101 13c.25 0 .487.042.712.126a1.708 1.708 0 0 1 1.004.941c.101.23.152.488.152.773 0 .297-.044.552-.132.765a2.027 2.027 0 0 1-.35.567c-.146.166-.31.315-.495.45-.184.134-.37.267-.556.399a7.28 7.28 0 0 0-.545.424 2.588 2.588 0 0 0-.467.53H21V19h-4c0-.342.045-.639.136-.89.091-.253.214-.478.37-.677.155-.2.338-.383.548-.55.21-.169.432-.34.666-.513.12-.09.246-.18.381-.273a2.57 2.57 0 0 0 .37-.307c.111-.112.205-.238.28-.378.075-.14.113-.3.113-.48 0-.285-.077-.508-.23-.667a.778.778 0 0 0-.587-.24c-.161 0-.297.04-.409.122a.889.889 0 0 0-.268.32 1.55 1.55 0 0 0-.144.436c-.029.16-.043.318-.043.475h-1.058c-.01-.336.025-.648.108-.937.083-.288.208-.54.374-.756a1.71 1.71 0 0 1 .626-.504c.252-.12.541-.181.868-.181zm-4.143-6.943l1.084.886L11.903 12l4.139 5.057-1.084.886L11 13.105l-3.958 4.838-1.084-.886L10.096 12 5.958 6.943l1.084-.886L11 10.895l3.958-4.838z" fill="#464D5A" fill-rule="nonzero"/></g></svg>