<svg viewbox="0 0 18 18">
  <path class="ql-fill" d="M15.707,7l1.146-1.146a0.5,0.5,0,1,0-.707-0.707L15,6.293,13.854,5.146a0.5,0.5,0,0,0-.707.707L14.293,7,13.146,8.146a0.5,0.5,0,1,0,.707.707L15,7.707l1.146,1.146a0.5,0.5,0,1,0,.707-0.707Z"></path>
  <path class="ql-fill" d="M6,5H3A1,1,0,0,0,2,6V8A1,1,0,0,0,3,9H6V5Z"></path>
  <path class="ql-fill" d="M10,5H7V9h3a1,1,0,0,0,1-1V6A1,1,0,0,0,10,5Z"></path>
  <g class="ql-fill ql-transparent">
    <path d="M8,11h4V9a1,1,0,0,0-1-1H8v3Z"></path>
    <path d="M7,11V8H4A1,1,0,0,0,3,9v2H7Z"></path>
    <path d="M7,12H3v2a1,1,0,0,0,1,1H7V12Z"></path>
    <path d="M8,12v3h3a1,1,0,0,0,1-1V12H8Z"></path>
    <path d="M8,6h3a1,1,0,0,0,1-1V3a1,1,0,0,0-1-1H8V6Z"></path>
    <path d="M4,6H7V2H4A1,1,0,0,0,3,3V5A1,1,0,0,0,4,6Z"></path>
  </g>
</svg>