<svg data-name="Delete Columns" id="Delete_Columns" viewbox="0 0 18 18" xmlns="http://www.w3.org/2000/svg">
<defs>
  <style>
  .cls-1,.cls-4{fill:#444;}.cls-1,.cls-2{stroke:#444;stroke-linecap:round;stroke-linejoin:round;}.cls-2{fill:none;}.cls-3{opacity:0.4;}
  </style>
</defs>
<rect class="cls-1" height="3" rx="0.5" ry="0.5" width="8" x="2.5" y="5.5"></rect>
<line class="cls-2" x1="16.5" x2="13.5" y1="5.5" y2="8.5"></line>
<line class="cls-2" x1="13.5" x2="16.5" y1="5.5" y2="8.5"></line>
<g class="cls-3">
  <path class="cls-4" d="M8,11h4V9a1,1,0,0,0-1-1H8v3Z"></path>
  <path class="cls-4" d="M7,11V8H4A1,1,0,0,0,3,9v2H7Z"></path>
  <path class="cls-4" d="M7,12H3v2a1,1,0,0,0,1,1H7V12Z"></path>
  <path class="cls-4" d="M8,12v3h3a1,1,0,0,0,1-1V12H8Z"></path>
  <path class="cls-4" d="M8,6h3a1,1,0,0,0,1-1V3a1,1,0,0,0-1-1H8V6Z"></path>
  <path class="cls-4" d="M4,6H7V2H4A1,1,0,0,0,3,3V5A1,1,0,0,0,4,6Z"></path>
</g></svg>