<svg data-name="Border Bottom" id="Border_Bottom" viewbox="0 0 18 18" xmlns="http://www.w3.org/2000/svg">
<defs>
  <style>
  .cls-1{opacity:0.4;}.cls-2{fill:#444;}.cls-3{fill:none;stroke:#444;stroke-miterlimit:10;stroke-width:2px;}
  </style>
</defs>
<g class="cls-1">
  <rect class="cls-2" height="2" transform="translate(18 -12) rotate(90)" width="2" x="14" y="2"></rect>
</g>
<g class="cls-1">
  <rect class="cls-2" height="2" transform="translate(21 -9) rotate(90)" width="2" x="14" y="5"></rect>
</g>
<g class="cls-1">
  <rect class="cls-2" height="2" transform="translate(24 -6) rotate(90)" width="2" x="14" y="8"></rect>
</g>
<g class="cls-1">
  <rect class="cls-2" height="2" transform="translate(30 0) rotate(90)" width="2" x="14" y="14"></rect>
</g>
<g class="cls-1">
  <rect class="cls-2" height="2" transform="translate(27 -3) rotate(90)" width="2" x="14" y="11"></rect>
</g>
<g class="cls-1">
  <rect class="cls-2" height="2" transform="translate(6 0) rotate(90)" width="2" x="2" y="2"></rect>
</g>
<g class="cls-1">
  <rect class="cls-2" height="2" transform="translate(9 3) rotate(90)" width="2" x="2" y="5"></rect>
</g>
<g class="cls-1">
  <rect class="cls-2" height="2" transform="translate(12 6) rotate(90)" width="2" x="2" y="8"></rect>
</g>
<g class="cls-1">
  <rect class="cls-2" height="2" transform="translate(18 12) rotate(90)" width="2" x="2" y="14"></rect>
</g>
<g class="cls-1">
  <rect class="cls-2" height="2" transform="translate(15 9) rotate(90)" width="2" x="2" y="11"></rect>
</g>
<line class="cls-3" x1="2" x2="16" y1="15" y2="15"></line>
<g class="cls-1">
  <rect class="cls-2" height="2" width="2" x="5" y="2"></rect>
</g>
<g class="cls-1">
  <rect class="cls-2" height="2" width="2" x="8" y="2"></rect>
</g>
<g class="cls-1">
  <rect class="cls-2" height="2" width="2" x="11" y="2"></rect>
</g>
<g class="cls-1">
  <rect class="cls-2" height="2" width="2" x="5" y="14"></rect>
</g>
<g class="cls-1">
  <rect class="cls-2" height="2" width="2" x="8" y="14"></rect>
</g>
<g class="cls-1">
  <rect class="cls-2" height="2" width="2" x="8" y="11"></rect>
</g>
<g class="cls-1">
  <rect class="cls-2" height="2" width="2" x="8" y="8"></rect>
</g>
<g class="cls-1">
  <rect class="cls-2" height="2" width="2" x="8" y="5"></rect>
</g>
<g class="cls-1">
  <rect class="cls-2" height="2" transform="translate(15 3) rotate(90)" width="2" x="5" y="8"></rect>
</g>
<g class="cls-1">
  <rect class="cls-2" height="2" transform="translate(21 -3) rotate(90)" width="2" x="11" y="8"></rect>
</g>
<g class="cls-1">
  <rect class="cls-2" height="2" width="2" x="11" y="14"></rect>
</g></svg>